<svg xmlns="http://www.w3.org/2000/svg" width="109.557" height="98" viewBox="0 0 109.557 98">
  <g id="bed" transform="translate(0 -27.005)">
    <g id="Group_13" data-name="Group 13" transform="translate(0 27.005)">
      <g id="Group_12" data-name="Group 12" transform="translate(0 0)">
        <path id="Path_6" data-name="Path 6" d="M103.137,71.2V46.265A19.28,19.28,0,0,0,83.879,27.007H63.658a2.14,2.14,0,1,0,0,4.28H83.879A15,15,0,0,1,98.858,46.265V68.948a15.761,15.761,0,0,0-5.135-.86h-.428V55.82a8.283,8.283,0,0,0-8.274-8.274H60.912a8.255,8.255,0,0,0-6.134,2.728,8.255,8.255,0,0,0-6.134-2.728H24.536a8.283,8.283,0,0,0-8.274,8.274V68.088h-.428a15.761,15.761,0,0,0-5.135.86V46.265A15,15,0,0,1,25.677,31.287H46.326a2.14,2.14,0,1,0,0-4.28H25.677A19.28,19.28,0,0,0,6.419,46.265V71.2A15.82,15.82,0,0,0,0,83.923v27.389a2.14,2.14,0,0,0,2.14,2.14h4.28v9.415a2.14,2.14,0,0,0,2.14,2.14H20.117a2.14,2.14,0,0,0,2.14-2.14v-9.415H87.3v9.415a2.14,2.14,0,0,0,2.14,2.14H101a2.14,2.14,0,0,0,2.14-2.14v-9.415h4.28a2.14,2.14,0,0,0,2.14-2.14V83.923A15.82,15.82,0,0,0,103.137,71.2ZM56.918,55.82a4,4,0,0,1,3.994-3.994H85.021a4,4,0,0,1,3.994,3.994V68.088h-32.1Zm-36.376,0a4,4,0,0,1,3.994-3.994H48.644a4,4,0,0,1,3.994,3.994V68.088h-32.1Zm-2.565,64.907H10.7v-7.275h7.278Zm80.881,0H91.58v-7.275h7.278ZM105.277,98.9H19.669a2.14,2.14,0,0,0,0,4.28h85.608v5.991h-4.228l-.052,0H89.44l-.052,0H20.168l-.052,0H8.559l-.052,0H4.28V83.923A11.568,11.568,0,0,1,15.834,72.368H93.722a11.568,11.568,0,0,1,11.555,11.555Z" transform="translate(0 -27.007)" fill="#f07444"/>
      </g>
    </g>
    <g id="Group_15" data-name="Group 15" transform="translate(52.639 27.005)">
      <g id="Group_14" data-name="Group 14" transform="translate(0 0)">
        <path id="Path_7" data-name="Path 7" d="M249.653,27.632a2.139,2.139,0,1,0,.627,1.513A2.156,2.156,0,0,0,249.653,27.632Z" transform="translate(-246 -27.005)" fill="#f07444"/>
      </g>
    </g>
    <g id="Group_17" data-name="Group 17" transform="translate(9.004 98.899)">
      <g id="Group_16" data-name="Group 16" transform="translate(0 0)">
        <path id="Path_8" data-name="Path 8" d="M45.733,363.621a2.139,2.139,0,1,0,.627,1.513A2.156,2.156,0,0,0,45.733,363.621Z" transform="translate(-42.08 -362.994)" fill="#f07444"/>
      </g>
    </g>
  </g>
</svg>
