<svg xmlns="http://www.w3.org/2000/svg" width="249.785" height="46.798" viewBox="0 0 249.785 46.798">
  <g id="godrej-interio-seeklogo.com" transform="translate(131.83 -219.198)">
    <path id="Path_1" data-name="Path 1" d="M-57.338,249.207A3.864,3.864,0,0,1-58.461,251a1.823,1.823,0,0,1-1.5.083c-.333-.166-.707-.458-.624-.915a2.607,2.607,0,0,1,.874-1.539c.541-.541,1.415-1.165,2-.541a.764.764,0,0,1,.453.473.764.764,0,0,1-.079.65m-35.7,1.706a5.73,5.73,0,0,1-1.581-1.456,1.563,1.563,0,0,1-.166-2.164c.707-.915,2.455-.25,3.162.166a7.846,7.846,0,0,1,2,1.872,14.9,14.9,0,0,1,1.581,3.037,9.682,9.682,0,0,1-4.993-1.456m4.66,5.659a10.073,10.073,0,0,1-.957,2.164,6.316,6.316,0,0,1-1.748,2.08,1.328,1.328,0,0,1-1.415.166,1.109,1.109,0,0,1-.25-1.082,4.493,4.493,0,0,1,.791-1.539,10.855,10.855,0,0,1,1.5-1.706,7.281,7.281,0,0,0,1.331-1.456c-.166-.374-.333-.707-.458-1.082.25,0,.541.083.791.083.333.083.624.25.624.541a4.025,4.025,0,0,1-.208,1.831m-10.069-.416c-.458.25-.874.458-1.331.707-.541.374-.791.707-.791,1.165a2.9,2.9,0,0,0,.25.791,3.839,3.839,0,0,1-1.207,1.872,6.3,6.3,0,0,1-1.5,1.248.662.662,0,0,1-.791-.083,1.163,1.163,0,0,1,0-1.165,13.442,13.442,0,0,1,1.04-1.706,13.018,13.018,0,0,1,3.661-3.578.436.436,0,0,1,.33-.092.436.436,0,0,1,.294.175.41.41,0,0,1,.192.322.41.41,0,0,1-.15.344m-24.8,17.517a24.771,24.771,0,0,1-2.538,3.079c-.541.458-1.123.707-1.581.458-.791-.374.25-1.789.541-2.164a23.378,23.378,0,0,1,3.245-3.162,7.514,7.514,0,0,1,2-1.248,10.366,10.366,0,0,1-1.664,3.037M-70.61,255.49c.25-.166,1.5-1.539,1.748-1.165s-.166,1-.707,1.539c-.707.791-1.207,1.456-2.372,1.456a4.839,4.839,0,0,1,1.331-1.831m10.735-3.329a1.323,1.323,0,0,0-1.123,0,3.348,3.348,0,0,0-.957.458,4.018,4.018,0,0,0-1.123.915l-1.331,1.331c-.458.541-.957,1.248-1.5,1.789-.791.791-1.5,1.706-2.288,2.413a11.973,11.973,0,0,1-3.329,2.413,2.046,2.046,0,0,1-1.415.083,1.054,1.054,0,0,1-.707-.791,1.689,1.689,0,0,1,.083-1.082,2.921,2.921,0,0,0,.25-.374,13.741,13.741,0,0,0,4.036-2.247,8.8,8.8,0,0,0,2.7-3.329c.333-.791.25-1.331,0-1.623-.707-.624-2-.083-2.7.25-.707.458-1.5.791-2.205,1.248a16.332,16.332,0,0,0-2.372,2.08c-.541.541-1.04,1.165-1.581,1.706-.458-.083-.624-.166-.791-.458a2.421,2.421,0,0,1-.166-1.331l.25-1.623c.083-.458.458-.791.624-1.248a.617.617,0,0,0-.333-.707,1.353,1.353,0,0,0-1.123.083,4.178,4.178,0,0,0-1.5,1.165,4.812,4.812,0,0,0-.791,1.165c-.166.083-.25,0-.25,0a3.181,3.181,0,0,0-.458-1.331,2,2,0,0,0-1.581-.915c-1.664-.083-3.079.083-4.743.083a17.315,17.315,0,0,0-1.04-2.164,12.077,12.077,0,0,0-1.914-2.7,8.575,8.575,0,0,0-3.329-2.247,6.766,6.766,0,0,0-2.7-.624,3.6,3.6,0,0,0-2.372.915,2.619,2.619,0,0,0-.624,2.7,5.5,5.5,0,0,0,.874,1.706,7.785,7.785,0,0,0,2.08,1.789c.707.458,1.5.624,2.2,1a3.4,3.4,0,0,0,.957.458l-2.122,2.164c-.083.083-1.331,1.331-1.664,1.248-.333,0-.791.083-.707-.166.166-.915.333-1.706.458-2.621a1.6,1.6,0,0,0-.333-1c-1.831-2.164-5.243.541-6.907,1.872a18.809,18.809,0,0,0-3.5,3.786,8.784,8.784,0,0,0-1.664,1.082,1.773,1.773,0,0,1-1.04.374,9.163,9.163,0,0,1,.874-1.331c.333-.541.791-1,1.123-1.456.458-.624.874-1.248,1.415-1.872.416-.624.874-1.165,1.331-1.789a.926.926,0,0,0,.166-1c-.083-.166-.333-.374-.874-.25a3.176,3.176,0,0,0-1.415.541,6.159,6.159,0,0,0-1.207.915c-.458.458-.957.915-1.415,1.456-.458.458-.791,1-1.207,1.456-.541.624-1.04,1.082-1.5,1.539a23.907,23.907,0,0,1-3.162,2.788,11.18,11.18,0,0,1-1.664,1.165A3.3,3.3,0,0,1-119,262.4a1.009,1.009,0,0,1-.82-.42,1.009,1.009,0,0,1-.137-.911,5.662,5.662,0,0,1,.624-1.706c.25-.624.624-1.331.957-2,.458-.707.957-1.331,1.5-2.08.541-.624.957-1.248,1.581-1.872.707-.707,1.415-1.248,2.08-2a21.65,21.65,0,0,1,2.871-2.08,10.248,10.248,0,0,1,3.41-1.331,11.774,11.774,0,0,1,2.7-.374,21.032,21.032,0,0,1,2.288.083c.416-.624.791-1.248,1.207-1.872.333-.541.624-1.082.957-1.539a.848.848,0,0,0-.707-.374,5.422,5.422,0,0,0-2,.083,28.645,28.645,0,0,0-5.326,1.789,35.505,35.505,0,0,0-4.036,1.872,35.54,35.54,0,0,0-3.412,2.08,23.765,23.765,0,0,0-3.412,2.7l-2.871,2.7a29.663,29.663,0,0,0-2.288,2.954,9.091,9.091,0,0,0-1.331,2.7,4.752,4.752,0,0,0-.083,2.413,2.39,2.39,0,0,0,1.914,2,6.346,6.346,0,0,0,2.788-.083c.707-.166,1.5-.374,2.288-.624a5.174,5.174,0,0,0,1.5-.791c.083-.083.25-.166.25,0,0,.458-.333.707-.624,1.165a2.753,2.753,0,0,1-.624.791c-1.415.915-2.788,1.789-4.119,2.788a38.625,38.625,0,0,0-8.072,6.366,8.206,8.206,0,0,0-1.831,3.329c-.416,2.247,1.748,2.33,3.329,1.872a15.119,15.119,0,0,0,4.993-2.621,28.818,28.818,0,0,0,5.867-5.825l1.123-1.539c.333-.541.791-1.082,1.123-1.623.333-.458.624-.915.957-1.456.416-.707.791-1.456,1.207-2.164a9.661,9.661,0,0,1,1.664-1.248c.624-.458,1.207-.791,1.831-1.248a5.747,5.747,0,0,1,1.207-.707,5.662,5.662,0,0,0-.166,1.248,3.146,3.146,0,0,0,.166,1.331,1.683,1.683,0,0,0,1.415,1,3.973,3.973,0,0,0,2-.166c.624-.25,1.207-.624,1.914-.915a15.6,15.6,0,0,1,1.5-1l1.207-1.082,1.04-1.456.874-1.165.624-.624.707-.166.707.083c-.166.458-.458.791-.624,1.248a5.586,5.586,0,0,0-.458,2,4.056,4.056,0,0,0,.25,1.706,2.326,2.326,0,0,0,1.331,1.331,4.307,4.307,0,0,0,2.08.166,7.7,7.7,0,0,0,2-.791,8.914,8.914,0,0,0,2.08-1.706,11.87,11.87,0,0,0,1.581-2.08c.541-.791.874-1.789,1.331-2.621a12.468,12.468,0,0,0,.707-2,7.24,7.24,0,0,0,.25-1.872,8.032,8.032,0,0,1,1.415,0,1.49,1.49,0,0,1,1.04.458,1.21,1.21,0,0,1,.333,1.248,2.516,2.516,0,0,1-.458,1.248c-.541,1.082-1.123,2.08-1.664,3.037-.957,1.706-2.08,3.5-3.079,5.2h3.5a55.029,55.029,0,0,0,4.036-6.366c.166-.166.25-.166.333-.083.25.624.624,1.248,1.123,1.331a2.72,2.72,0,0,0,2.08-.374,7.11,7.11,0,0,0-.8,2.635,2.606,2.606,0,0,0,.874,2.413c1.123.791,2.288.374,3.412-.25a21.362,21.362,0,0,0,2.288-1.456,23.274,23.274,0,0,0,2.538-2c.166-.166.458-.374.624-.541.333-.458.25,0,.166.291-.25.458-.541,1-.791,1.456-.458.624-.874,1.331-1.331,2-.624.915-1.207,1.706-1.831,2.621l-.915,1.956c-.624.915-1.331,1.706-1.914,2.621-.541.624-.957,1.331-1.5,2-.541.707-1.123,1.331-1.664,2.08-.541.624-1.04,1.165-1.5,1.789a6.329,6.329,0,0,0-.541,1.456,1.673,1.673,0,0,0,.333,1.082,1.413,1.413,0,0,0,1.331.458,3.715,3.715,0,0,0,1.581-.624c.541-.374.874-.791,1.331-1.165.541-.541.957-1.082,1.5-1.706l1.581-2.164c.624-.915,1.207-1.872,1.831-2.788.541-.791.957-1.623,1.415-2.413l1.581-2.954c.416-.791.874-1.706,1.331-2.621s.874-1.789,1.331-2.621c.541-.915.957-1.789,1.581-2.7a12.568,12.568,0,0,1,1.207-1.706c.541-.707,1.04-1.331,1.581-2a9.683,9.683,0,0,0,1.123-1.456,1,1,0,0,0-.333-1.29" transform="translate(0 -14.405)" fill="#f07444"/>
    <path id="Path_2" data-name="Path 2" d="M201.8,254.3h8.779v8.779H201.8Z" transform="translate(-194.813 -20.496)" fill="#f07444"/>
    <path id="Path_3" data-name="Path 3" d="M124.773,257.623c2.08,2.247,3.037,5.076,3.037,8.738v18.6h-8.155V267.4a6,6,0,0,0-1.539-4.2,5.457,5.457,0,0,0-4.036-1.623,5.516,5.516,0,0,0-4.119,1.623,5.708,5.708,0,0,0-1.623,4.2v17.558H100.1v-30.04h7.531v2.746a12.015,12.015,0,0,1,8.9-3.37,10.387,10.387,0,0,1,8.238,3.329" transform="translate(-135.427 -20.49)" fill="#f07444"/>
    <path id="Path_4" data-name="Path 4" d="M236.91,262.472a8.169,8.169,0,0,0-2.621,4.369H247.77a5.781,5.781,0,0,0-1.914-4.369,6.621,6.621,0,0,0-4.452-1.581,6.967,6.967,0,0,0-4.494,1.581m18.1,9.944H234.29a7.456,7.456,0,0,0,2.954,4.286,9.1,9.1,0,0,0,5.409,1.5,13.238,13.238,0,0,0,8.2-2.954l3.329,5.492a17.786,17.786,0,0,1-11.816,4.369,15.916,15.916,0,0,1-11.525-4.452,14.482,14.482,0,0,1-4.535-10.9A15.2,15.2,0,0,1,241.7,254.4a13.256,13.256,0,0,1,9.986,3.911,13.4,13.4,0,0,1,3.828,9.736,17.833,17.833,0,0,1-.5,4.369" transform="translate(-209.119 -20.554)" fill="#f07444"/>
    <path id="Path_5" data-name="Path 5" d="M328.117,254.722V262h-2.039a7.556,7.556,0,0,0-5.617,2c-1.373,1.331-2.039,3.329-2.039,5.95v15.062H310.6v-30.29h7.156v3.7a9.184,9.184,0,0,1,7.822-4.036,6.592,6.592,0,0,1,2.538.333m2.913,1.123h8.779v29.167h-8.779Z" transform="translate(-258.344 -20.543)" fill="#f07444"/>
    <path id="Path_6" data-name="Path 6" d="M401.785,263.911a8.165,8.165,0,0,0-2.122,5.742,7.958,7.958,0,0,0,2.122,5.742,7.365,7.365,0,0,0,5.617,2.247,7.594,7.594,0,0,0,5.534-2.247,7.683,7.683,0,0,0,2.205-5.659,8.01,8.01,0,0,0-2.2-5.742,7.2,7.2,0,0,0-5.534-2.33,7.057,7.057,0,0,0-5.617,2.247m16.934-5.159a14.356,14.356,0,0,1,4.7,10.9,14.548,14.548,0,0,1-4.7,10.9A16.092,16.092,0,0,1,407.235,285a15.564,15.564,0,0,1-11.317-4.452,15.175,15.175,0,0,1,0-21.8,16.823,16.823,0,0,1,22.8,0" transform="translate(-305.467 -20.496)" fill="#f07444"/>
    <path id="Path_7" data-name="Path 7" d="M65,235.3h8.738v29.167H65Zm10.235-10.984a5.118,5.118,0,1,1-5.118-5.118,5.118,5.118,0,0,1,5.118,5.118m122.617,0a5.118,5.118,0,1,1-5.118-5.118,5.118,5.118,0,0,1,5.118,5.118m-70.982,34.2c-3.578,0-4.868-1.248-4.868-4.785V226.523H114.18v8.03h-3.911v8.779h3.911v10.776c0,7.947,3.578,11.858,10.9,11.858a13.493,13.493,0,0,0,4.161-.624v-6.948a22.952,22.952,0,0,1-2.372.125" transform="translate(-114.932)" fill="#f07444"/>
  </g>
</svg>
