<svg xmlns="http://www.w3.org/2000/svg" width="153.969" height="113.235" viewBox="0 0 153.969 113.235">
  <g id="green-furniture-concept-ab-seeklogo.com" transform="translate(19.8 -71.3)">
    <circle id="Ellipse_6" data-name="Ellipse 6" cx="43.496" cy="43.496" r="43.496" transform="translate(13.688 71.3)" fill="#4e4d4d"/>
    <path id="Path_30" data-name="Path 30" d="M643.943,520.261a1.98,1.98,0,0,0,1.087-.113l.249,1.042a5.82,5.82,0,0,1-1.245.272,3.838,3.838,0,0,1-.5-.023c-.906-.159-1.336-.815-1.336-2.355v-4.755H641v-1.087h1.2V511h1.291v2.242h1.857v1.087h-1.857v4.687C643.513,519.717,643.626,520.148,643.943,520.261Z" transform="translate(-511.178 -340.141)" fill="#4e4d4d"/>
    <path id="Path_31" data-name="Path 31" d="M574.8,525.3v-1.019c0-3.759.906-4.279,3.328-4.279,2.2,0,2.445,1.155,2.445,2.423v.928c0,.589-.611,1.132-4.506,1.155,0,1.608.249,2.853,1.834,2.853a10.672,10.672,0,0,0,2.242-.294l.226,1.064a10.106,10.106,0,0,1-2.468.317A2.8,2.8,0,0,1,574.8,525.3Zm4.483-2.966a1.093,1.093,0,0,0-1.177-1.245c-1.494,0-1.992.453-2.015,2.31,1.834,0,2.989-.113,3.193-.453Z" transform="translate(-459.968 -347.103)" fill="#4e4d4d"/>
    <path id="Path_32" data-name="Path 32" d="M513.068,528.087H511.8V521.2c0-.589,1.7-1.4,3.985-1.4,1.879,0,1.97,1.313,1.97,2.808v5.457h-1.291v-5.049c0-1.2-.045-2.128-.906-2.128-1.381,0-2.491.362-2.491.611Z" transform="translate(-411.233 -346.948)" fill="#4e4d4d"/>
    <path id="Path_33" data-name="Path 33" d="M446.119,517.55a7.083,7.083,0,0,1-2.468.43h-.181c-2.944,0-4.37-1.019-4.37-4.144v-3.215c0-3.125,1.4-4.121,4.37-4.121h.181a7.624,7.624,0,0,1,2.468.408l-.272,1.087a7.287,7.287,0,0,0-2.2-.34h-.181c-2.219,0-2.944.77-2.944,2.966v3.215c0,2.2.725,2.966,2.944,2.966h.181a7.926,7.926,0,0,0,2.2-.317Z" transform="translate(-354.994 -336.66)" fill="#4e4d4d"/>
    <path id="Path_34" data-name="Path 34" d="M481.936,525.536c0,1.653-.974,2.4-3.079,2.4s-3.057-.747-3.057-2.4V521.8c0-1.653.974-2.4,3.057-2.4,2.106,0,3.079.747,3.079,2.4Zm-1.291-3.736c0-.928-.5-1.426-1.766-1.426s-1.743.521-1.743,1.426v3.713c0,.906.475,1.449,1.743,1.449s1.766-.543,1.766-1.449Z" transform="translate(-383.384 -346.639)" fill="#4e4d4d"/>
    <path id="Path_35" data-name="Path 35" d="M551.891,527.732a7.071,7.071,0,0,1-1.947.249c-2.31,0-2.943-1.268-2.943-3.464v-1.653c0-2.2.634-3.464,2.943-3.464a7.071,7.071,0,0,1,1.947.249l-.2.974a7.356,7.356,0,0,0-1.562-.181c-1.585,0-1.834,1-1.834,2.423v1.653c0,1.426.249,2.423,1.834,2.423a7.187,7.187,0,0,0,1.562-.181Z" transform="translate(-438.462 -346.639)" fill="#4e4d4d"/>
    <path id="Path_36" data-name="Path 36" d="M608.9,531.129V520.872c0-.611,1.743-1.472,4.03-1.472,1.925,0,2.015,1.359,2.015,2.921v2.853c0,1.494-.091,2.808-1.879,2.808a4.344,4.344,0,0,1-2.853-.906v4.1Zm4.868-8.831c0-1.4-.159-1.721-1.019-1.721-1.381,0-2.559.5-2.559.838v4.257a3.082,3.082,0,0,0,2.445,1.109c1.109,0,1.109-.453,1.109-1.653Z" transform="translate(-486.347 -346.639)" fill="#4e4d4d"/>
    <path id="Path_37" data-name="Path 37" d="M-18.351,513.662c0,2.355.2,3.464,2.853,3.464h.136a5.375,5.375,0,0,0,1.879-.317v-3.442h1.359v4.144a6.072,6.072,0,0,1-3.238.77H-15.5c-2.921,0-4.3-1.019-4.3-4.121v-3.147c0-3.1,1.4-4.121,4.3-4.121h.136a6.575,6.575,0,0,1,2.468.408l-.249,1.087a6.752,6.752,0,0,0-2.219-.317H-15.5c-2.649,0-2.853,1.109-2.853,3.464Z" transform="translate(0 -336.961)" fill="#4e4d4d"/>
    <path id="Path_38" data-name="Path 38" d="M24.068,521.566v6.521H22.8V521.2c0-.838,1.7-1.4,3.261-1.4a5.551,5.551,0,0,1,.611.045l.34.023-.226,1.087-.7-.068C25.562,520.932,24.226,521.045,24.068,521.566Z" transform="translate(-32.954 -346.948)" fill="#4e4d4d"/>
    <path id="Path_39" data-name="Path 39" d="M45,525.3v-1.019c0-3.759.906-4.279,3.328-4.279,2.2,0,2.445,1.155,2.445,2.423v.928c0,.589-.611,1.132-4.506,1.155,0,1.608.249,2.853,1.811,2.853a10.672,10.672,0,0,0,2.242-.294l.226,1.064a10.105,10.105,0,0,1-2.468.317A2.8,2.8,0,0,1,45,525.3Zm4.483-2.966c0-.77-.362-1.245-1.177-1.245-1.494,0-1.993.453-2.015,2.31,1.834,0,2.989-.113,3.193-.453Z" transform="translate(-50.128 -347.103)" fill="#4e4d4d"/>
    <path id="Path_40" data-name="Path 40" d="M78.4,525.3v-1.019c0-3.759.906-4.279,3.328-4.279,2.2,0,2.445,1.155,2.445,2.423v.928c0,.589-.611,1.132-4.506,1.155,0,1.608.249,2.853,1.834,2.853a11.085,11.085,0,0,0,2.264-.294l.2,1.064a10.105,10.105,0,0,1-2.468.317A2.818,2.818,0,0,1,78.4,525.3Zm4.483-2.966c0-.77-.362-1.245-1.177-1.245-1.494,0-1.993.453-2.015,2.31,1.834,0,2.989-.113,3.193-.453Z" transform="translate(-75.965 -347.103)" fill="#4e4d4d"/>
    <path id="Path_41" data-name="Path 41" d="M113.768,528.087H112.5V521.2c0-.589,1.7-1.4,3.985-1.4,1.879,0,1.97,1.313,1.97,2.808v5.457h-1.291v-5.049c0-1.2-.045-2.128-.906-2.128-1.381,0-2.491.362-2.491.611Z" transform="translate(-102.344 -346.948)" fill="#4e4d4d"/>
    <path id="Path_42" data-name="Path 42" d="M163.623,507.8h6.5v1.155h-5.162v3.623h4.8v1.177h-4.8v5.027H163.6V507.8Z" transform="translate(-141.874 -337.666)" fill="#4e4d4d"/>
    <path id="Path_43" data-name="Path 43" d="M204.755,527.629c0,.5-1.7,1.336-4.008,1.336-1.925,0-1.947-1.336-1.947-2.876v-5.366h1.291v4.868c0,1.268,0,2.287.906,2.287,1.359,0,2.468-.317,2.468-.589V520.7h1.291Z" transform="translate(-169.104 -347.645)" fill="#4e4d4d"/>
    <path id="Path_44" data-name="Path 44" d="M235.868,521.566v6.521H234.6V521.2c0-.838,1.7-1.4,3.261-1.4a5.551,5.551,0,0,1,.611.045l.34.023-.226,1.087-.7-.068C237.362,520.932,236,521.045,235.868,521.566Z" transform="translate(-196.798 -346.948)" fill="#4e4d4d"/>
    <path id="Path_45" data-name="Path 45" d="M259.991,528.087H258.7V521.2c0-.589,1.7-1.4,3.985-1.4,1.879,0,1.97,1.313,1.97,2.808v5.457h-1.291v-5.049c0-1.2-.045-2.128-.906-2.128-1.381,0-2.491.362-2.491.611Z" transform="translate(-215.441 -346.948)" fill="#4e4d4d"/>
    <path id="Path_46" data-name="Path 46" d="M295.791,507.934H294.5V506.1h1.291Zm0,7.268c0,.657.068,1.064.317,1.223s.589.113,1.2-.068l.272,1.064a4.976,4.976,0,0,1-1.4.272c-.928,0-1.63-.543-1.63-1.97v-6.295h1.291V515.2Z" transform="translate(-243.135 -336.351)" fill="#4e4d4d"/>
    <path id="Path_47" data-name="Path 47" d="M310.844,520.261a1.98,1.98,0,0,0,1.087-.113l.249,1.042a5.821,5.821,0,0,1-1.245.272,3.838,3.838,0,0,1-.5-.023c-.906-.159-1.336-.815-1.336-2.355v-4.755h-1.2v-1.087h1.223V511h1.291v2.242h1.857v1.087h-1.857v4.687C310.436,519.717,310.527,520.148,310.844,520.261Z" transform="translate(-253.501 -340.141)" fill="#4e4d4d"/>
    <path id="Path_48" data-name="Path 48" d="M339.755,527.629c0,.5-1.7,1.336-4.008,1.336-1.925,0-1.947-1.336-1.947-2.876v-5.366h1.291v4.868c-.023,1.268,0,2.287.906,2.287,1.359,0,2.468-.317,2.468-.589V520.7h1.291Z" transform="translate(-273.536 -347.645)" fill="#4e4d4d"/>
    <path id="Path_49" data-name="Path 49" d="M370.868,521.566v6.521H369.6V521.2c0-.838,1.7-1.4,3.261-1.4a5.551,5.551,0,0,1,.611.045l.34.023-.226,1.087-.7-.068C372.34,520.932,371,521.045,370.868,521.566Z" transform="translate(-301.23 -346.948)" fill="#4e4d4d"/>
    <path id="Path_50" data-name="Path 50" d="M391.7,525.3v-1.019c0-3.759.906-4.279,3.328-4.279,2.2,0,2.445,1.155,2.445,2.423v.928c0,.589-.611,1.132-4.506,1.155,0,1.608.249,2.853,1.811,2.853a11.085,11.085,0,0,0,2.264-.294l.2,1.064a10.106,10.106,0,0,1-2.468.317A2.8,2.8,0,0,1,391.7,525.3Zm4.506-2.966a1.093,1.093,0,0,0-1.177-1.245c-1.494,0-1.993.453-2.015,2.31,1.834,0,2.989-.113,3.193-.453Z" transform="translate(-318.326 -347.103)" fill="#4e4d4d"/>
    <path id="Path_51" data-name="Path 51" d="M271.607,188.1l-.158-15.714H257.592v3.464l3.917,1.721.023,3.4.045,4.6a21.4,21.4,0,0,1-4.913.928c-.521.023-1.064.045-1.608.045a26.156,26.156,0,0,1-5.932-.634,10.277,10.277,0,0,1-2.672-1,7.258,7.258,0,0,1-.7-.43,3.935,3.935,0,0,1-.34-.294,4.281,4.281,0,0,1-.815-1.381,10.832,10.832,0,0,1-.566-1.9,17.417,17.417,0,0,1-.362-2.128c-.068-.634-.113-1.177-.136-1.562V174.42c0-2.468-.023-5.547-.023-8.581,0-2.445,0-4.845.045-6.838a15.128,15.128,0,0,1,.408-3.487,8.453,8.453,0,0,1,.317-1,2.02,2.02,0,0,1,.113-.226l.023-.023a6.953,6.953,0,0,1,4.325-2.785,23.3,23.3,0,0,1,5.479-.5,30.592,30.592,0,0,1,7.019.77c.792.181,1.359.362,1.721.475l.362.136h0l4.008-9.148A34.64,34.64,0,0,0,254.218,141a28.825,28.825,0,0,0-10.166,1.494,16.794,16.794,0,0,0-4.234,2.332,17.754,17.754,0,0,0-3.374,3.4,13.915,13.915,0,0,0-2.2,4.868,25.751,25.751,0,0,0-.7,5.729c-.045,2.106-.045,4.551-.045,7.019,0,4.076.023,8.2.023,10.823v.294a30.725,30.725,0,0,0,.521,4.981q.17.917.408,1.9c.2.792.453,1.562.725,2.332.045.136.113.272.159.408a18.5,18.5,0,0,0,1.042,2.128,12.4,12.4,0,0,0,2.128,2.717c.136.136.272.249.408.362a16.045,16.045,0,0,0,3.895,2.491,23.717,23.717,0,0,0,3.872,1.336,35.618,35.618,0,0,0,8.332.928c.589,0,1.177,0,1.743-.045h.362a34.8,34.8,0,0,0,11.548-2.921l2.921-1.359Z" transform="translate(-195.947 -53.918)" fill="#fff"/>
  </g>
</svg>
