<svg xmlns="http://www.w3.org/2000/svg" width="212" height="44.207" viewBox="0 0 212 44.207">
  <g id="ashley-furniture-seeklogo.com" transform="translate(599 -217.6)">
    <path id="Path_1" data-name="Path 1" d="M-580,260.323h15.875l7.474-8.03,7.792,7.792h33.844L-556.171,217.6-599,260.35Z" fill="#747373" fill-rule="evenodd"/>
    <g id="Group_3" data-name="Group 3" transform="translate(-538.917 221.522)">
      <path id="Path_2" data-name="Path 2" d="M187.9,238.128c0-.636-.477-.928-1.431-.928H185.2v3.233h.8v-1.325h.4l.636,1.325h.875L187.188,239A.857.857,0,0,0,187.9,238.128Zm-1.511.53H186v-.981h.371q.716,0,.716.477C187.055,238.5,186.817,238.658,186.393,238.658Z" transform="translate(-37.445 -235.928)" fill="#4e4d4d" fill-rule="evenodd"/>
      <path id="Path_3" data-name="Path 3" d="M183.689,233.275a3.01,3.01,0,0,0-2.12-.875,2.84,2.84,0,0,0-2.518,1.431,2.708,2.708,0,0,0-.451,1.511,2.846,2.846,0,0,0,.848,2.041,2.976,2.976,0,0,0,4.187.027,2.887,2.887,0,0,0,.875-2.067A2.776,2.776,0,0,0,183.689,233.275Zm-.345,3.816a2.688,2.688,0,0,1-1.749.716,2.429,2.429,0,0,1-1.749-.769,2.246,2.246,0,0,1-.716-1.67,2.429,2.429,0,0,1,.769-1.749,2.279,2.279,0,0,1,1.723-.716,2.429,2.429,0,0,1,1.749.769,2.3,2.3,0,0,1,.716,1.749A2.746,2.746,0,0,1,183.344,237.091Z" transform="translate(-32.594 -232.4)" fill="#4e4d4d" fill-rule="evenodd"/>
      <path id="Path_4" data-name="Path 4" d="M-334.56,240.392c0-.769.4-1.511,2.438-1.511a9.045,9.045,0,0,1,5.354,2.12v-8.4a2.91,2.91,0,0,1-1.961.53c-1.511,0-2.809-.53-4.956-.53-5.963,0-9.594,3.631-9.594,8.163,0,7,11.767,7.845,11.767,12.509,0,1.988-1.882,3.366-4.612,3.366a7.89,7.89,0,0,1-4.32-1.246l-13.278-22.634c-.053-.08-.292-.08-.318-.053l-17.068,28.6a3.343,3.343,0,0,1-1.193,1.246h11.635a1.775,1.775,0,0,1-.848-1.431,2.972,2.972,0,0,1,.371-1.352l.875-1.8h12.483l.848,1.8a2.491,2.491,0,0,1,.371,1.352,1.746,1.746,0,0,1-.8,1.431h8.322a25.375,25.375,0,0,0,3.6.212c7.765,0,12.642-3.472,12.642-9.25C-322.819,244.738-334.56,243.625-334.56,240.392Zm-22.263,11.688,3.048-4.93,3.074,4.93Z" transform="translate(372.3 -232.547)" fill="#4e4d4d" fill-rule="evenodd"/>
      <path id="Path_5" data-name="Path 5" d="M-82.3,264.094h18.605v-7.712a5.271,5.271,0,0,1-3.79,1.4h-5.168V238.095c0-1.564.318-2.571,1.272-2.995H-82.3c1.007.451,1.272,1.431,1.272,2.995v22.952C-81,262.637-81.293,263.67-82.3,264.094Z" transform="translate(159.159 -234.384)" fill="#4e4d4d" fill-rule="evenodd"/>
      <path id="Path_6" data-name="Path 6" d="M-177.553,261.147v-8.64h7.924v8.64c0,1.564-.318,2.6-1.272,3.048h10.919c-.954-.451-1.272-1.484-1.272-3.048V238.195c0-1.564.318-2.571,1.272-2.995H-170.9c.954.451,1.272,1.431,1.272,2.995v8.083h-7.924v-8.083c0-1.564.318-2.571,1.272-2.995H-187.2c.954.451,1.272,1.431,1.272,2.995v22.952c0,1.564-.318,2.6-1.272,3.048h10.919C-177.235,263.744-177.553,262.71-177.553,261.147Z" transform="translate(236.257 -234.458)" fill="#4e4d4d" fill-rule="evenodd"/>
      <path id="Path_7" data-name="Path 7" d="M27.057,235.1c.53.371.875.716.875,1.272a3.248,3.248,0,0,1-.769,1.67l-4.267,6.6-4.559-6.467c-.61-.928-.928-1.4-.928-1.8a1.581,1.581,0,0,1,.875-1.272H-10.1c1.193.61,1.431,1.564,1.431,2.995v22.952c0,1.564-.318,2.6-1.272,3.048H12.136v-7.712a5.4,5.4,0,0,1-3.79,1.4H-.32V252.7H5.351a3.668,3.668,0,0,1,2.836,1.431v-9.117a3.751,3.751,0,0,1-2.836,1.431H-.32v-5.115H8.161a5.216,5.216,0,0,1,3.79,1.484v-.292l6.546,8.454v10.071c0,1.564-.318,2.6-1.272,3.048H28.144c-.954-.451-1.272-1.484-1.272-3.048V250.975L38,236.982a9.359,9.359,0,0,1,2.041-1.882Z" transform="translate(106.094 -234.384)" fill="#4e4d4d" fill-rule="evenodd"/>
      <path id="Path_8" data-name="Path 8" d="M-274.2,366.336h.716V363.95h2.544v-.53h-2.544v-1.59h3.233v-.53H-274.2Z" transform="translate(300.2 -327.137)" fill="#4e4d4d" fill-rule="evenodd"/>
      <path id="Path_9" data-name="Path 9" d="M-253.6,364.507c0,.954-.4,1.4-1.431,1.4a1.228,1.228,0,0,1-1.4-1.4V361.3h-.769v3.207c0,1.325.636,1.908,2.12,1.908s2.147-.636,2.147-1.908V361.3h-.689v3.207Z" transform="translate(287.705 -327.137)" fill="#4e4d4d" fill-rule="evenodd"/>
      <path id="Path_10" data-name="Path 10" d="M-231.347,362.731c0-.928-.769-1.431-2.253-1.431h-2.2v5.036h.769v-2.2h1.829l1.193,2.2h.769L-232.514,364C-231.719,363.765-231.347,363.341-231.347,362.731Zm-2.359.875h-1.325v-1.8h1.4c.954,0,1.484.318,1.484.928S-232.673,363.606-233.706,363.606Z" transform="translate(271.977 -327.138)" fill="#4e4d4d" fill-rule="evenodd"/>
      <path id="Path_11" data-name="Path 11" d="M-211.125,365.461l-2.915-4.161h-1.06v5.036h.636v-4.479l3.18,4.479h.8V361.3h-.636Z" transform="translate(256.763 -327.137)" fill="#4e4d4d" fill-rule="evenodd"/>
      <rect id="Rectangle_5" data-name="Rectangle 5" width="0.769" height="5.036" transform="translate(47.706 34.163)" fill="#4e4d4d"/>
      <path id="Path_12" data-name="Path 12" d="M-187,361.83h1.749v4.506h.822V361.83h1.749v-.53H-187Z" transform="translate(236.11 -327.137)" fill="#4e4d4d" fill-rule="evenodd"/>
      <path id="Path_13" data-name="Path 13" d="M-164.7,364.507c0,.954-.4,1.4-1.431,1.4-1.007,0-1.4-.451-1.4-1.4V361.3h-.769v3.207c0,1.325.636,1.908,2.067,1.908,1.484,0,2.147-.636,2.147-1.908V361.3h-.636v3.207Z" transform="translate(222.366 -327.137)" fill="#4e4d4d" fill-rule="evenodd"/>
      <path id="Path_14" data-name="Path 14" d="M-142.374,362.731c0-.928-.769-1.431-2.279-1.431H-146.8v5.036h.769v-2.2h1.8l1.193,2.2h.769L-143.514,364C-142.772,363.765-142.374,363.341-142.374,362.731Zm-2.359.875h-1.325v-1.8h1.352c1.007,0,1.484.318,1.484.928S-143.7,363.606-144.733,363.606Z" transform="translate(206.565 -327.138)" fill="#4e4d4d" fill-rule="evenodd"/>
      <path id="Path_15" data-name="Path 15" d="M-125.431,363.95h2.518v-.53h-2.518v-1.59h3.207v-.53H-126.2v5.036h4.055v-.53h-3.286Z" transform="translate(191.424 -327.137)" fill="#4e4d4d" fill-rule="evenodd"/>
      <rect id="Rectangle_6" data-name="Rectangle 6" width="0.769" height="5.036" transform="translate(72.857 34.163)" fill="#4e4d4d"/>
      <path id="Path_16" data-name="Path 16" d="M-85.1,365.461-88.04,361.3H-89.1v5.036h.663v-4.479l3.18,4.479h.769V361.3h-.61Z" transform="translate(164.157 -327.137)" fill="#4e4d4d" fill-rule="evenodd"/>
      <path id="Path_17" data-name="Path 17" d="M-62.616,361.7a2.75,2.75,0,0,0-1.643-.4H-66.3v5.036h1.908c1.829,0,2.995-1.007,2.995-2.518A2.3,2.3,0,0,0-62.616,361.7Zm-1.723,4.108h-1.193v-4h1.166c1.4,0,2.147.716,2.147,1.988A1.862,1.862,0,0,1-64.339,365.806Z" transform="translate(147.4 -327.137)" fill="#4e4d4d" fill-rule="evenodd"/>
      <path id="Path_18" data-name="Path 18" d="M-40.2,364.507c0,.954-.4,1.4-1.431,1.4-1.007,0-1.4-.451-1.4-1.4V361.3H-43.8v3.207c0,1.325.636,1.908,2.067,1.908,1.484,0,2.147-.636,2.147-1.908V361.3h-.636v3.207Z" transform="translate(130.863 -327.137)" fill="#4e4d4d" fill-rule="evenodd"/>
      <path id="Path_19" data-name="Path 19" d="M-21.391,363.279a9.032,9.032,0,0,1-1.352-.4.678.678,0,0,1-.371-.557c0-.477.53-.8,1.325-.8a1.488,1.488,0,0,1,1.564.875l.716-.159A2.225,2.225,0,0,0-21.788,361c-1.272,0-2.12.61-2.12,1.431a.9.9,0,0,0,.477.8,3.388,3.388,0,0,0,1.67.557c1.034.239,1.564.4,1.564,1.007,0,.477-.557.875-1.484.875a1.82,1.82,0,0,1-1.8-1.034l-.716.079a2.484,2.484,0,0,0,2.571,1.484c1.352,0,2.279-.61,2.279-1.431C-19.35,363.915-20.039,363.544-21.391,363.279Z" transform="translate(116.457 -326.917)" fill="#4e4d4d" fill-rule="evenodd"/>
      <path id="Path_20" data-name="Path 20" d="M-4.8,361.83h1.776v4.506h.769V361.83H-.48v-.53H-4.8Z" transform="translate(102.199 -327.137)" fill="#4e4d4d" fill-rule="evenodd"/>
      <path id="Path_21" data-name="Path 21" d="M18.326,362.731c0-.928-.769-1.431-2.279-1.431H13.9v5.036h.769v-2.2h1.8l1.193,2.2h.769L17.186,364C17.928,363.765,18.326,363.341,18.326,362.731Zm-2.359.875H14.642v-1.8h1.352c1.007,0,1.484.318,1.484.928S17,363.606,15.967,363.606Z" transform="translate(88.455 -327.138)" fill="#4e4d4d" fill-rule="evenodd"/>
      <rect id="Rectangle_7" data-name="Rectangle 7" width="0.795" height="5.036" transform="translate(107.815 34.163)" fill="#4e4d4d"/>
      <path id="Path_22" data-name="Path 22" d="M43.769,363.95h2.518v-.53H43.769v-1.59H47v-.53H43v5.036h4.081v-.53H43.769Z" transform="translate(67.067 -327.137)" fill="#4e4d4d" fill-rule="evenodd"/>
      <path id="Path_23" data-name="Path 23" d="M62.436,363.279a9.032,9.032,0,0,1-1.352-.4.627.627,0,0,1-.371-.557c0-.477.477-.8,1.325-.8a1.509,1.509,0,0,1,1.564.875l.716-.159A2.225,2.225,0,0,0,62.038,361c-1.272,0-2.12.61-2.12,1.431a.932.932,0,0,0,.451.8,3.676,3.676,0,0,0,1.723.557c1.034.239,1.564.4,1.564,1.007,0,.477-.61.875-1.484.875a1.82,1.82,0,0,1-1.8-1.034l-.769.079a2.506,2.506,0,0,0,2.571,1.484c1.4,0,2.279-.61,2.279-1.431C64.45,363.915,63.787,363.544,62.436,363.279Z" transform="translate(54.867 -326.917)" fill="#4e4d4d" fill-rule="evenodd"/>
      <path id="Path_24" data-name="Path 24" d="M82.48,378.175h.477l-.557,1.007h.4l.689-1.113V377.3H82.48Z" transform="translate(38.11 -338.897)" fill="#4e4d4d" fill-rule="evenodd"/>
      <rect id="Rectangle_8" data-name="Rectangle 8" width="0.795" height="5.036" transform="translate(125.863 34.163)" fill="#4e4d4d"/>
      <path id="Path_25" data-name="Path 25" d="M115.049,365.461l-2.968-4.161H111.1v5.036h.583v-4.479l3.233,4.479h.769V361.3h-.636Z" transform="translate(17.016 -327.137)" fill="#4e4d4d" fill-rule="evenodd"/>
      <path id="Path_26" data-name="Path 26" d="M134.9,365.665c-1.087,0-1.749-.769-1.749-2.067s.716-2.067,1.749-2.067a1.493,1.493,0,0,1,1.564,1.193l.689-.133A2.131,2.131,0,0,0,134.9,361a2.532,2.532,0,0,0-1.723.61,2.628,2.628,0,0,0,1.723,4.585,2.169,2.169,0,0,0,2.279-1.643l-.716-.106A1.491,1.491,0,0,1,134.9,365.665Z" transform="translate(1.435 -326.917)" fill="#4e4d4d" fill-rule="evenodd"/>
      <rect id="Rectangle_9" data-name="Rectangle 9" width="1.007" height="0.875" transform="translate(139.698 38.323)" fill="#4e4d4d"/>
    </g>
  </g>
</svg>
