<svg xmlns="http://www.w3.org/2000/svg" width="192.358" height="123.86" viewBox="0 0 192.358 123.86">
  <g id="hillsdale-furniture-seeklogo.com" transform="translate(67.9 -72.2)">
    <path id="Path_16" data-name="Path 16" d="M-67.8,360.294V334h2.33v11.945h15.191V334H-47.9c0,4.411,0,8.8-.025,13.159s-.025,8.748-.025,13.159h-2.33V348.175H-65.446v12.143H-67.8Z" transform="translate(-0.075 -196.921)" fill="#f07444"/>
    <rect id="Rectangle_11" data-name="Rectangle 11" width="2.379" height="26.294" transform="translate(-41.012 137.079)" fill="#f07444"/>
    <path id="Path_17" data-name="Path 17" d="M76.9,360.294V334h2.33v24.063H93.306v2.23Z" transform="translate(-108.916 -196.921)" fill="#f07444"/>
    <path id="Path_18" data-name="Path 18" d="M166.8,360.294V334h2.33v24.063h14.076v2.23Z" transform="translate(-176.537 -196.921)" fill="#f07444"/>
    <path id="Path_19" data-name="Path 19" d="M267.773,335.953c-.223.273-.446.57-.669.867s-.421.595-.669.867q-.335-.3-.818-.669a7.8,7.8,0,0,0-1.115-.669,9.353,9.353,0,0,0-1.413-.52,6.049,6.049,0,0,0-1.685-.2,5.073,5.073,0,0,0-2.106.4,4.7,4.7,0,0,0-1.487,1.041,4.112,4.112,0,0,0-.892,1.487,5.393,5.393,0,0,0-.3,1.784,3.966,3.966,0,0,0,.347,1.71,3.471,3.471,0,0,0,.967,1.19,5.563,5.563,0,0,0,1.413.818c.545.223,1.115.446,1.71.644.793.273,1.685.595,2.676.991a12.741,12.741,0,0,1,2.726,1.512,8.063,8.063,0,0,1,2.106,2.28,6.1,6.1,0,0,1,.843,3.346,7.209,7.209,0,0,1-.62,3.048,7.106,7.106,0,0,1-1.685,2.3,7.406,7.406,0,0,1-2.5,1.462,8.749,8.749,0,0,1-3.048.52,9.118,9.118,0,0,1-2.751-.4,15.572,15.572,0,0,1-2.354-.966,10.915,10.915,0,0,1-1.883-1.289,7.7,7.7,0,0,1-1.264-1.338l1.512-1.512a13.07,13.07,0,0,0,1.19,1.115,10.983,10.983,0,0,0,1.462,1.041,8.106,8.106,0,0,0,1.76.793,7.137,7.137,0,0,0,4.238-.05,5.9,5.9,0,0,0,1.834-.966,5.409,5.409,0,0,0,1.289-1.586,4.76,4.76,0,0,0,.5-2.156,4.312,4.312,0,0,0-.743-2.6,5.946,5.946,0,0,0-1.834-1.685,9.841,9.841,0,0,0-2.33-1.041c-.818-.273-1.586-.52-2.255-.768q-.669-.26-1.636-.669a7.245,7.245,0,0,1-1.834-1.14,6.394,6.394,0,0,1-1.487-1.809,5.869,5.869,0,0,1-.669-2.7,7.992,7.992,0,0,1,.322-2.5,6.364,6.364,0,0,1,1.19-2.255,6.5,6.5,0,0,1,2.206-1.636,8.014,8.014,0,0,1,3.37-.644,9.581,9.581,0,0,1,6.394,2.553" transform="translate(-241.6 -196.469)" fill="#f07444"/>
    <path id="Path_20" data-name="Path 20" d="M339.725,334h5.824a14.026,14.026,0,0,1,5.105.917,12.406,12.406,0,0,1,4.213,2.652,12.694,12.694,0,0,1,2.85,4.163,13.748,13.748,0,0,1,1.041,5.477,14.057,14.057,0,0,1-.768,4.535,11.567,11.567,0,0,1-2.5,4.238A13.423,13.423,0,0,1,351,359.1a16.557,16.557,0,0,1-6.741,1.214H339.7V334Zm2.329,2.255v21.783h2.924a12.656,12.656,0,0,0,4.783-.867,10.7,10.7,0,0,0,3.618-2.329,10.449,10.449,0,0,0,2.28-3.445,11.943,11.943,0,0,0-.074-8.748,9.744,9.744,0,0,0-2.379-3.445,10.526,10.526,0,0,0-3.544-2.181,11.976,11.976,0,0,0-4.312-.768Z" transform="translate(-306.589 -196.921)" fill="#f07444"/>
    <path id="Path_21" data-name="Path 21" d="M460.8,356.608h-2.354l-2.3-5.427c-.743-1.809-1.512-3.618-2.28-5.427h-9.442c-.743,1.809-1.512,3.618-2.28,5.427l-2.3,5.427H437.5q2.937-6.914,5.824-13.754t5.824-13.754q2.937,6.914,5.824,13.754c1.933,4.56,3.891,9.145,5.824,13.754m-11.3-21.164a5.382,5.382,0,0,0-.173-.595,3.835,3.835,0,0,1-.173-.57,46.006,46.006,0,0,1-1.76,4.659c-.669,1.537-1.338,3.048-1.983,4.585h7.484c-.57-1.338-1.14-2.7-1.685-4.039-.57-1.338-1.14-2.676-1.71-4.039" transform="translate(-380.152 -193.235)" fill="#f07444"/>
    <path id="Path_22" data-name="Path 22" d="M552.2,360.294V334h2.33v24.063h14.076v2.23Z" transform="translate(-466.427 -196.921)" fill="#f07444"/>
    <path id="Path_23" data-name="Path 23" d="M642.1,360.294V334h15.885v2.255H644.429v9.69h12.094v2.206H644.429v9.913h14.076v2.23Z" transform="translate(-534.048 -196.921)" fill="#f07444"/>
    <path id="Path_24" data-name="Path 24" d="M245.773,139.9H231.6V128.3l-17.3,8.1v34.546h17.174V156.276l6.939-4.064,7.212,4.064v14.671h17.6V136.7L245.773,128Z" transform="translate(-212.265 -41.972)" fill="#f07444"/>
    <path id="Path_25" data-name="Path 25" d="M261.291,92.075l.3-7.534L236.955,72.2,211.9,84.393l.124,7.682,24.931-12.094Z" transform="translate(-210.46)" fill="#f07444"/>
    <path id="Path_26" data-name="Path 26" d="M-67.9,490.153h1.834v-11.9H-53.08v-1.685H-66.066v-9.987h14.5V464.9H-67.9Z" transform="translate(0 -295.381)" fill="#f07444"/>
    <path id="Path_27" data-name="Path 27" d="M41.729,481.851a7.406,7.406,0,0,1-.545,2.974,6.188,6.188,0,0,1-1.561,2.156,6.7,6.7,0,0,1-2.354,1.338,10.136,10.136,0,0,1-5.948,0,6.183,6.183,0,0,1-2.33-1.338,5.852,5.852,0,0,1-1.512-2.156,7.406,7.406,0,0,1-.545-2.974V464.9H25.1v17.05a9.05,9.05,0,0,0,.694,3.668,7.3,7.3,0,0,0,1.933,2.676,8.007,8.007,0,0,0,2.924,1.611,11.663,11.663,0,0,0,3.693.545,11.834,11.834,0,0,0,3.668-.545,8.616,8.616,0,0,0,2.974-1.611,7.413,7.413,0,0,0,1.983-2.676,8.966,8.966,0,0,0,.719-3.668V464.9H41.8v16.951Z" transform="translate(-69.953 -295.381)" fill="#f07444"/>
    <path id="Path_28" data-name="Path 28" d="M135.623,483.857c-.991-1.908-2.007-3.891-3-5.849a7.472,7.472,0,0,0,4.238-2.255,6.316,6.316,0,0,0,1.512-4.362,5.4,5.4,0,0,0-.867-3.073,7.2,7.2,0,0,0-2.156-2.082,9.841,9.841,0,0,0-2.726-1.165,10.831,10.831,0,0,0-2.676-.372H124v25.253h1.834V478.206H129.4a6.266,6.266,0,0,0,.694-.025,4.8,4.8,0,0,0,.595-.05c.991,1.933,1.983,3.891,2.974,5.824,1.016,1.958,2.032,3.94,3.023,5.923l.025.074h2.032l-.1-.173c-.966-1.908-1.983-3.916-3.023-5.923m-9.764-17.422h3.94a8.372,8.372,0,0,1,2.652.4,7.4,7.4,0,0,1,2.156,1.115,5.387,5.387,0,0,1,1.413,1.611,3.866,3.866,0,0,1,.5,1.859,5.549,5.549,0,0,1-.3,1.735,4.242,4.242,0,0,1-1.066,1.636,5.7,5.7,0,0,1-2.082,1.264,9.618,9.618,0,0,1-3.3.5h-3.916Z" transform="translate(-144.343 -295.231)" fill="#f07444"/>
    <path id="Path_29" data-name="Path 29" d="M229.081,482.522h0a4.839,4.839,0,0,1,.05.57v.149c-.025-.05-.074-.074-.1-.124-.124-.149-.248-.3-.372-.471h0c-3.593-3.866-7.162-7.682-10.706-11.5q-5.316-5.687-10.731-11.524L207,459.4v26.591h1.883V464.356a4.423,4.423,0,0,1-.05-.57v-.149c.025.05.074.074.1.124.1.124.223.273.372.471h0c3.593,3.841,7.187,7.682,10.706,11.424,3.544,3.792,7.162,7.633,10.731,11.424l.223.223V460.763h-1.883Z" transform="translate(-206.774 -291.244)" fill="#f07444"/>
    <rect id="Rectangle_12" data-name="Rectangle 12" width="1.834" height="25.253" transform="translate(31.922 169.519)" fill="#f07444"/>
    <path id="Path_30" data-name="Path 30" d="M357.4,466.585h9.913v23.568h1.834V466.585h9.913V464.9H357.4Z" transform="translate(-319.902 -295.381)" fill="#f07444"/>
    <path id="Path_31" data-name="Path 31" d="M475.029,481.851a7.406,7.406,0,0,1-.545,2.974,6.188,6.188,0,0,1-1.561,2.156,6.7,6.7,0,0,1-2.354,1.338,10.136,10.136,0,0,1-5.948,0,6.183,6.183,0,0,1-2.33-1.338,5.852,5.852,0,0,1-1.512-2.156,7.406,7.406,0,0,1-.545-2.974V464.9H458.4v17.05a9.05,9.05,0,0,0,.694,3.668,7.3,7.3,0,0,0,1.933,2.676,8.007,8.007,0,0,0,2.924,1.611,11.663,11.663,0,0,0,3.693.545,11.834,11.834,0,0,0,3.668-.545,8.616,8.616,0,0,0,2.974-1.611,7.413,7.413,0,0,0,1.983-2.676,8.966,8.966,0,0,0,.719-3.668V464.9H475.1v16.951Z" transform="translate(-395.872 -295.381)" fill="#f07444"/>
    <path id="Path_32" data-name="Path 32" d="M569,483.857c-.991-1.908-2.007-3.891-3-5.849a7.472,7.472,0,0,0,4.238-2.255,6.317,6.317,0,0,0,1.512-4.362,5.4,5.4,0,0,0-.867-3.073,7.2,7.2,0,0,0-2.156-2.082A9.841,9.841,0,0,0,566,465.072a10.83,10.83,0,0,0-2.676-.372H557.4v25.253h1.834V478.206H562.8a6.265,6.265,0,0,0,.694-.025,4.8,4.8,0,0,0,.595-.05c.991,1.958,2.007,3.916,2.974,5.824,1.016,1.958,2.032,3.94,3.023,5.923l.025.074h2.032l-.1-.173c-.991-1.933-2.007-3.94-3.048-5.923m-9.764-17.422h3.94a8.371,8.371,0,0,1,2.652.4,7.4,7.4,0,0,1,2.156,1.115,5.386,5.386,0,0,1,1.412,1.611,3.637,3.637,0,0,1,.521,1.859,5.549,5.549,0,0,1-.3,1.735,4.243,4.243,0,0,1-1.066,1.636,5.7,5.7,0,0,1-2.082,1.264,9.618,9.618,0,0,1-3.3.5h-3.916V466.435Z" transform="translate(-470.338 -295.231)" fill="#f07444"/>
    <path id="Path_33" data-name="Path 33" d="M639.859,488.468v-10.21H652.82v-1.685H639.859v-9.987h14.473V464.9H638v25.253h16.876v-1.685Z" transform="translate(-530.964 -295.381)" fill="#f07444"/>
  </g>
</svg>
