<svg xmlns="http://www.w3.org/2000/svg" width="184" height="44.239" viewBox="0 0 184 44.239">
  <path id="bassett-furniture-industries-seeklogo.com" d="M40.339,275.241h1.9c6.5,0,10.576,2.085,10.576,9.258,0,5.61-2.238,9.6-9.074,9.6a16.336,16.336,0,0,1-3.434-.245V275.241Zm0-17.781a27.523,27.523,0,0,1,3.863-.245c4.66,0,7.3,1.839,7.3,6.806,0,6.193-3.587,7.94-9.258,7.94h-1.9Zm-9.442.153a18.31,18.31,0,0,1,.429,5.181v28.6c0,1.962-.245,3.066-1.288,3.617l-2.023,1.165v1.441c2.361-.061,4.966-.184,7.664-.184,3.066,0,6.131.123,8.982.184,10.393.276,17.719-5.794,17.719-13.611,0-7.388-4.66-10.3-12.814-10.607v-.123c5.855-1.962,11.343-4.139,11.343-10.638,0-7.2-6.223-8.706-12.109-8.645-4.905.061-18.67.061-22.9,0v2.361c.031,0,4.384-.491,5,1.257m42.521,23.023a21.776,21.776,0,0,0-7.971,2.943c-2.177,1.471-2.943,4.292-2.943,6.744,0,4.506,2.361,7.879,7.112,7.787a10.464,10.464,0,0,0,9.442-5.365v4.476c2.238-.061,4.016-.184,5.794-.184,1.839,0,3.556.123,5.579.184V294.83l-.613-.153c-2.085-.184-2.882-1.042-2.943-2.636-.061-2.606-.215-5.273-.215-7.879,0-2.636.153-5.242.215-7.879.153-6.806-4.936-9.228-10.546-9.289-6.039-.092-10.76,4.231-10.76,4.231v4.414l1.9.429,1.042-2.483c.491-1.563,2.851-1.594,3.955-1.594,4.782,0,6.652,3.035,6.652,7.511Zm5.61,9.074a7.931,7.931,0,0,1-5.3,2.851c-6.223.092-6.652-7.388,2.422-9.657l2.882-.736Zm33.508-13.458.521-7.756a18.142,18.142,0,0,0-7.971-1.471c-7.45,0-13.121,2.667-13.121,9.963,0,4.016,2.3,6.744,6.744,7.817l5.488,1.349c2.361.552,4.016,1.318,4.016,4.139,0,3.1-2.606,4.813-5.488,4.813-3,0-6.99-.705-7.541-3.342l-.736-4.415H91.965v8.982a29.093,29.093,0,0,0,9.963,1.778c6.56,0,13.4-3.434,13.4-10.852,0-5.242-2.912-7.235-8.093-8.369l-5.242-1.134c-2.422-.521-3.495-1.533-3.495-3.587,0-2.759,2.238-4.139,5.947-4.139,2.023,0,4.966,1.134,5.212,2.483l.644,3.709h2.238Zm56.163,6.039.031-4.108c0-7.48-5.334-11.22-12.416-11.22-1.931,0-14.776.95-14.286,16.4.276,9.136,5.181,14.746,14.47,14.746a19.573,19.573,0,0,0,10.209-2.759l1.41-3.035-.766-.981a14.769,14.769,0,0,1-6.867,2.238c-6.652,0-10.147-4.6-10.147-10.791,0,0,18.363-.276,18.363-.491M155.454,270.52c4.721,0,5.212,5.12,5.212,8.89-1.778.061-8.952.061-10.73,0,0-6.009,1.778-8.89,5.518-8.89m47.058-10.147a3.694,3.694,0,1,0,3.709-3.648,3.657,3.657,0,0,0-3.709,3.648m.674,0a3.006,3.006,0,1,1,6.009,0,3.008,3.008,0,1,1-6.009,0m1.563,2.146h.674v-1.839h.705l1.165,1.839h.736l-1.226-1.9a1.1,1.1,0,0,0,1.134-1.165c0-.828-.49-1.226-1.5-1.226H204.78v4.292Zm.674-3.74h.889c.46,0,.95.092.95.674,0,.674-.521.736-1.1.736h-.705v-1.41Zm-67.536,17.474.521-7.756a18.142,18.142,0,0,0-7.971-1.471c-7.45,0-13.152,2.667-13.152,9.963,0,4.016,2.3,6.744,6.775,7.817l5.488,1.349c2.361.552,4.016,1.318,4.016,4.139,0,3.1-2.606,4.813-5.488,4.813-3,0-6.99-.705-7.541-3.342l-.736-4.415h-2.483l-.031,8.982a29.352,29.352,0,0,0,9.963,1.778c6.56,0,13.4-3.434,13.4-10.852,0-5.242-2.943-7.235-8.093-8.369l-5.212-1.134c-2.453-.521-3.525-1.533-3.525-3.587,0-2.759,2.238-4.139,5.917-4.139,2.054,0,5,1.134,5.242,2.483l.644,3.709h2.269Zm36.052,13.857c0,5.733,2.361,8.124,8.185,8.124,2.054,0,3.464-.582,3.893-1.165l3.1-3.74-.521-1.257a5.484,5.484,0,0,1-2.943.828c-2.851,0-3.955-.889-3.955-4.108V273.677l6.775-.031.092-4.047H181.7v-3.495c0-2.943-.153-8.431-.092-8.676l-.889-.644c-1.931.889-6.744,3.219-6.744,3.219,0-.031.092,9.657.092,9.657l-4.231,2.759v1.41l4.077-.184v16.462Zm16.4,0c0,5.733,2.33,8.124,8.155,8.124,2.054,0,3.4-.582,3.893-1.165l3.127-3.74-.49-1.257a5.567,5.567,0,0,1-2.943.828c-2.912,0-3.985-.889-3.985-4.108V273.677l6.775-.031.092-4.047H198.1v-3.495c0-2.943-.153-8.431-.092-8.676l-.92-.644c-1.9.889-6.744,3.219-6.744,3.219,0-.031.092,9.6.092,9.6H186.2v4.047h4.108v16.462Z" transform="translate(-25.9 -253.994)" fill="#4e4d4d"/>
</svg>
