<svg xmlns="http://www.w3.org/2000/svg" width="253.228" height="164.647" viewBox="0 0 253.228 164.647">
  <g id="haverty-furniture-seeklogo.com" transform="translate(73.3 -62.1)">
    <g id="Group_5" data-name="Group 5" transform="translate(-49.393 62.1)">
      <path id="Path_52" data-name="Path 52" d="M261.117,62.1c-15.773,0-28.517,17.387-28.517,38.824a52.032,52.032,0,0,0,2.009,14.39c4.215,14.324,14.489,24.467,26.508,24.467s22.326-10.142,26.508-24.467a50.657,50.657,0,0,0,2.009-14.39c0-21.437-12.777-38.824-28.517-38.824m-13.271,67.6-.1-.1c-.2-.2-.461-.428-.527-.494a34.14,34.14,0,0,1-7.475-12.085,15.008,15.008,0,0,1-.593-1.712,47.44,47.44,0,0,1-2.206-14.555,46.191,46.191,0,0,1,2.832-16.07,34.214,34.214,0,0,1,7.475-12.019c4.083-4.083,8.891-6.257,13.9-6.257a17.325,17.325,0,0,1,6.29,1.185l.2.066a8.041,8.041,0,0,0-.922.329l-.428-.165a15.531,15.531,0,0,0-13.369,1.91,25.915,25.915,0,0,0-7.376,7.212c-4.083,6.388-6.355,14.818-6.355,23.775a59.736,59.736,0,0,0,1.778,14.555c.1.428.231.856.362,1.317a33.616,33.616,0,0,0,6.586,12.118s.165.2.3.329a2.465,2.465,0,0,0-.362.659m2.042,2.009a1.514,1.514,0,0,1-.4-.988,1.55,1.55,0,0,1,.527-1.021,3.831,3.831,0,0,1,2.7-.757,3.114,3.114,0,0,1,2.964,1.976.488.488,0,0,0,.231-.033c2.667-1.317,3.919-5.993,3.919-15.082v-.461l-.033-12.908h-6.059v19.033a7.085,7.085,0,0,0,.494,2.305l.1.3h-4.577l.1-.3a7.085,7.085,0,0,0,.494-2.305V80.409a7.085,7.085,0,0,0-.494-2.305l-.1-.3h4.61l-.1.3a7.085,7.085,0,0,0-.494,2.305l-.033,19.066H259.8l-.033-11.064.033-3.26c.428-7.87,2.964-13.139,7.343-15.279a6.142,6.142,0,0,1,2.766-.692c1.614.1,3.293.955,3.227,2.14a1.55,1.55,0,0,1-.527,1.021,3.831,3.831,0,0,1-2.7.757,3.764,3.764,0,0,1-2.536-1.087,1.42,1.42,0,0,1-.428-.856.357.357,0,0,0-.2.033c-3.03,1.482-4.215,5.7-3.853,17.42V99.475h6.487V80.409a7.085,7.085,0,0,0-.494-2.305l-.1-.3h4.61l-.1.3a7.085,7.085,0,0,0-.494,2.305v41.03a7.085,7.085,0,0,0,.494,2.305l.1.3h-4.61l.1-.3a7.084,7.084,0,0,0,.494-2.305V99.508l-2.865,2.865H262.9v14.489c-.428,7.87-2.964,13.139-7.343,15.279a6.142,6.142,0,0,1-2.766.692,4.183,4.183,0,0,1-2.9-1.12m11.2,3.721a17.022,17.022,0,0,1-5.96-1.087c.3-.1.593-.231.823-.329h.033a15.373,15.373,0,0,0,5.1.692,17.275,17.275,0,0,0,11.855-5.2,33.159,33.159,0,0,0,7.31-12.052c.263-.724.494-1.449.724-2.173a50.279,50.279,0,0,0,2.075-14.357,55.834,55.834,0,0,0-2.206-15.773A34.327,34.327,0,0,0,274.355,73.1a3.285,3.285,0,0,0,.4-.626l.2.2a34.223,34.223,0,0,1,7.409,11.986,46.212,46.212,0,0,1,2.964,16.267,46.9,46.9,0,0,1-2.206,14.39c-3.82,11.888-12.25,20.12-22.03,20.12" transform="translate(-155.776 -62.1)" fill="#4e4d4d" fill-rule="evenodd"/>
      <path id="Path_53" data-name="Path 53" d="M7.8,352.4H-.7a2.581,2.581,0,0,1,1.12,2.338v36.815A2.614,2.614,0,0,1-.7,393.891H7.8a2.655,2.655,0,0,1-1.12-2.338V354.738A2.581,2.581,0,0,1,7.8,352.4" transform="translate(0.7 -256.806)" fill="#4e4d4d"/>
    </g>
    <g id="Group_6" data-name="Group 6" transform="translate(-73.3 156.805)">
      <path id="Path_54" data-name="Path 54" d="M650.27,375.55h0c-2.733-9.352-14.522-9.978-14.522-16.037a4.36,4.36,0,0,1,4.182-3.886c2.8,0,4.841.823,6.421,3.128v-9.023a2.012,2.012,0,0,1-1.646.757,12.4,12.4,0,0,1-2.338-.4,12.974,12.974,0,0,0-2.667-.4c-5.763,0-10.472,3.952-10.472,10.175,0,8.957,9.912,10.537,13.666,15.707h0a7.087,7.087,0,0,1,1.416,4.347,6.775,6.775,0,0,1-7.179,7.179,10.245,10.245,0,0,1-8.331-3.556v9.484a2.516,2.516,0,0,1,1.581-1.054c2.206,0,4.478,1.054,7.343,1.054a12.947,12.947,0,0,0,13.106-13.271,14.685,14.685,0,0,0-.56-4.215" transform="translate(-397.602 -349.7)" fill="#4e4d4d"/>
      <path id="Path_55" data-name="Path 55" d="M-53.312,374.758l4.182-4.413H-65.924V354.638A2.614,2.614,0,0,1-64.8,352.3h-8.5a2.581,2.581,0,0,1,1.12,2.338v36.815a2.581,2.581,0,0,1-1.12,2.338h8.5a2.581,2.581,0,0,1-1.12-2.338v-16.7Z" transform="translate(73.3 -351.444)" fill="#4e4d4d"/>
    </g>
    <g id="Group_7" data-name="Group 7" transform="translate(-38.625 157.102)">
      <path id="Path_56" data-name="Path 56" d="M70.89,390.675l-6.751-14.522L52.285,350.6h-.3L40.134,376.153l-6.751,14.522A6.308,6.308,0,0,1,32,392.651h8.759a1.383,1.383,0,0,1-.692-1.35,5,5,0,0,1,.461-1.581l3.194-7.31h16.5l3.194,7.31a5,5,0,0,1,.461,1.581,1.383,1.383,0,0,1-.692,1.35h9.121a5.483,5.483,0,0,1-1.416-1.976M45.567,378.162l.889-2.009,5.5-12.414,5.466,12.414.889,2.009Z" transform="translate(-32 -350.6)" fill="#4e4d4d"/>
      <path id="Path_57" data-name="Path 57" d="M370.9,392.344c-.889-5.4-2.733-11.229-7.244-14.983h0a16.288,16.288,0,0,0-6.388-3.26v-.132a10.24,10.24,0,0,0,9.187-10.175c.1-9.089-7.376-11.394-14.818-11.394H341a2.453,2.453,0,0,1,1.153,2.239v36.914a2.626,2.626,0,0,1-1.087,2.338h8.562a2.641,2.641,0,0,1-1.185-2.338V376.241a18.37,18.37,0,0,1,5.5,1.12h0a16.086,16.086,0,0,1,3.425,1.778,13.406,13.406,0,0,1,6.388,11.492c0,1.218-.132,2.667-1.284,3.26h9.55a2.043,2.043,0,0,1-1.12-1.548m-19.033-21.305h-3.458V357.768h4.215c5.038,0,7.508,2.766,7.508,6.125.033,4.116-3.326,7.146-8.265,7.146" transform="translate(-239.248 -351.807)" fill="#4e4d4d"/>
      <path id="Path_58" data-name="Path 58" d="M543.606,353.684a7.781,7.781,0,0,1-1.153,2.667l-7.277,12.316h-.132l-7.277-12.316a8.357,8.357,0,0,1-1.153-2.667c0-.527.461-.922.823-1.284H516.9a9.106,9.106,0,0,1,3.1,3.425l11.986,18.934V391.52a2.614,2.614,0,0,1-1.12,2.338h8.5a2.581,2.581,0,0,1-1.12-2.338V374.759l11.986-18.934a9.106,9.106,0,0,1,3.1-3.425H542.783c.362.362.823.757.823,1.284" transform="translate(-357.225 -351.807)" fill="#4e4d4d"/>
      <path id="Path_59" data-name="Path 59" d="M431,358.92a4.466,4.466,0,0,1,2.338-1.054h7.442v33.687a2.581,2.581,0,0,1-1.12,2.338h8.562a2.581,2.581,0,0,1-1.12-2.338V377.361h0V357.866h7.442a4.584,4.584,0,0,1,2.338,1.054V352.4H431Z" transform="translate(-299.611 -351.807)" fill="#4e4d4d"/>
      <path id="Path_60" data-name="Path 60" d="M247.52,354.738v36.815a2.527,2.527,0,0,1-1.12,2.305h24.434v-7.014c-.889,1.449-2.4,1.581-4.478,1.581H253.809v-13.6h11.92l4.281-4.544H253.776V357.669h12.579c2.107,0,3.622.132,4.478,1.581V352.4H246.4a2.548,2.548,0,0,1,1.12,2.338" transform="translate(-175.799 -351.807)" fill="#4e4d4d"/>
      <path id="Path_61" data-name="Path 61" d="M150.857,353.717a2.259,2.259,0,0,1-.2,1.021l-9.187,22.623-1.284,3.194h-.1l-1.284-3.194-9.187-22.623a2.81,2.81,0,0,1-.2-1.021,1.888,1.888,0,0,1,.79-1.317H120.2a10.787,10.787,0,0,1,2.964,3.952l9.154,21.009,7.607,17.42h.1l7.607-17.42,9.154-21.009a10.524,10.524,0,0,1,2.964-3.952H150.1a1.854,1.854,0,0,1,.757,1.317" transform="translate(-91.156 -351.807)" fill="#4e4d4d"/>
      <path id="Path_62" data-name="Path 62" d="M538.165,516.4a2.784,2.784,0,0,0-2.009.823,2.867,2.867,0,0,0-.856,2.042,2.739,2.739,0,0,0,.856,2.009,2.793,2.793,0,0,0,2.009.856,2.868,2.868,0,0,0,2.042-.856,2.784,2.784,0,0,0,.823-2.009,2.867,2.867,0,0,0-2.865-2.865m2.272,2.832a2.11,2.11,0,0,1-.659,1.581,2.389,2.389,0,0,1-1.614.692,2.352,2.352,0,0,1-1.614-.659,2.294,2.294,0,0,1-.659-1.614,2.194,2.194,0,0,1,.691-1.614,2.266,2.266,0,0,1,3.194,0,2.294,2.294,0,0,1,.659,1.614m-2.239-1.581h-1.284v3.1h.988v-1.185h.1l.56,1.185h1.054l-.692-1.35a.84.84,0,0,0,.626-.823c0-.593-.461-.922-1.35-.922m-.165.593c.329,0,.494.1.494.362,0,.23-.165.362-.461.362h-.2v-.724Z" transform="translate(-369.566 -461.803)" fill="#4e4d4d" fill-rule="evenodd"/>
      <path id="Path_63" data-name="Path 63" d="M209.861,528.5H209.4v2.865h.593a1.234,1.234,0,0,0,1.087-.494,1.755,1.755,0,0,0,.263-.988c0-.922-.461-1.383-1.482-1.383" transform="translate(-150.983 -469.918)" fill="#4e4d4d"/>
      <path id="Path_64" data-name="Path 64" d="M475.861,528.5H475.4v2.865h.593a1.234,1.234,0,0,0,1.087-.494,1.755,1.755,0,0,0,.263-.988c0-.922-.461-1.383-1.482-1.383" transform="translate(-329.391 -469.918)" fill="#4e4d4d"/>
      <path id="Path_65" data-name="Path 65" d="M500.137,530.107V528.2h4.61v-3.326h-4.61v-1.712h4.841V519.8H495v13.732h10.109v-3.425Z" transform="translate(-342.536 -464.083)" fill="#4e4d4d"/>
      <path id="Path_66" data-name="Path 66" d="M161.718,527.538a2.141,2.141,0,0,1-4.281-.033V519.8H152.3v7.738c0,4.05,2.6,6.191,7.409,6.191,4.511,0,7.113-2.272,7.113-6.224V519.8h-5.137v7.738Z" transform="translate(-112.686 -464.083)" fill="#4e4d4d"/>
      <path id="Path_67" data-name="Path 67" d="M456.43,527.7a2.335,2.335,0,0,0-.988-.823,3.109,3.109,0,0,0,1.515-1.778h-5.005a1.234,1.234,0,0,1-1.087.494h-.593v-2.865h.461c1.021,0,1.482.461,1.482,1.383a1.834,1.834,0,0,1-.263.988h5.005a4.679,4.679,0,0,0,.23-1.383c0-2.4-1.712-3.82-4.511-3.82H445.3v13.732h4.972l.3-5.3c.626,0,.856.033,1.153.263a1.522,1.522,0,0,1,.56.56,19.914,19.914,0,0,1,1.581,3.425l.428,1.087h4.972l-.889-2.173a11.689,11.689,0,0,0-1.943-3.787" transform="translate(-309.202 -464.15)" fill="#4e4d4d"/>
      <path id="Path_68" data-name="Path 68" d="M111.2,533.532h5.1V528.3h4.511v-3.359H116.3v-1.778h4.511V519.8H111.2Z" transform="translate(-85.12 -464.083)" fill="#4e4d4d"/>
      <path id="Path_69" data-name="Path 69" d="M217.63,527.7a2.335,2.335,0,0,0-.988-.823,3.109,3.109,0,0,0,1.515-1.778h-5.038a1.234,1.234,0,0,1-1.087.494h-.593v-2.865h.461c1.021,0,1.482.461,1.482,1.383a1.835,1.835,0,0,1-.263.988h5.038a4.679,4.679,0,0,0,.23-1.383c0-2.4-1.712-3.82-4.511-3.82H206.5v13.732h4.972l.3-5.3c.626,0,.856.033,1.153.263a1.815,1.815,0,0,1,.56.56,19.915,19.915,0,0,1,1.581,3.425l.428,1.087h4.972l-.889-2.173a11.689,11.689,0,0,0-1.943-3.787" transform="translate(-149.038 -464.15)" fill="#4e4d4d"/>
      <path id="Path_70" data-name="Path 70" d="M266.343,527.012a1.369,1.369,0,0,0-.362-.856L265.026,525l-4.314-5.2H256.3v13.732h4.939v-7.113a1.177,1.177,0,0,0,.3.856l5.2,6.257h4.478V519.8h-4.939v7.212Z" transform="translate(-182.439 -464.083)" fill="#4e4d4d"/>
      <path id="Path_71" data-name="Path 71" d="M341.6,523.455h3.655v10.076h5.137V523.455h3.688V519.8H341.6Z" transform="translate(-239.65 -464.083)" fill="#4e4d4d"/>
      <path id="Path_72" data-name="Path 72" d="M399.218,527.538a2.141,2.141,0,0,1-4.281-.033V519.8H389.8v7.738c0,4.05,2.6,6.191,7.409,6.191,4.511,0,7.113-2.272,7.113-6.224V519.8h-5.137v7.738Z" transform="translate(-271.978 -464.083)" fill="#4e4d4d"/>
      <rect id="Rectangle_10" data-name="Rectangle 10" width="5.071" height="13.732" transform="translate(93.388 55.717)" fill="#4e4d4d"/>
    </g>
  </g>
</svg>
