<svg xmlns="http://www.w3.org/2000/svg" width="241.409" height="95.076" viewBox="0 0 241.409 95.076">
  <g id="furniture-lighting-decor-seeklogo.com" transform="translate(-21 -203.1)">
    <g id="Group_4" data-name="Group 4" transform="translate(21 203.1)">
      <path id="Path_27" data-name="Path 27" d="M349.418,222.614c0,.764-.4.644-.885.644h-3.38c.121-6.759.845-9.053,2.535-9.053,1.851,0,1.73,1.65,1.73,8.409m7.122.282c0-4.506-3.1-9.214-9.013-9.214a10.386,10.386,0,0,0-10.059,10.7c0,6.2,4.225,10.3,10.582,10.3A8.052,8.052,0,0,0,356.459,227v-.161h-.523a7.425,7.425,0,0,1-7.081,7.242c-2.535,0-3.742-1.569-3.742-9.013,0-.4.04-.8.04-1.207h10.381c.684-.08,1.006-.241,1.006-.966m-19.514-5.15a4.233,4.233,0,0,0-3.943-4.506h-.121a4.924,4.924,0,0,0-4.345,3.219l-.2-2.293h-9.858v.483H319.8c.845,0,1.368.684,1.368,1.69v15.732c0,1.006-.8,1.569-1.891,1.569h-1.247v.443h13.237v-.443h-1.408c-.6,0-1.086-.483-1.086-1.65v-13c0-4.144,2.414-5.351,4.023-5.351,1.529,0,2.615.925,2.615,1.529,0,.08-.081.161-.2.2a5.791,5.791,0,0,0-2.132-.563,3.5,3.5,0,0,0-3.42,3.581v.121a3.557,3.557,0,0,0,3.581,3.42,3.865,3.865,0,0,0,3.782-3.943q.06-.181,0-.241m-20.077,15.893H315.7c-.845,0-1.247-.684-1.247-1.569v-17.9h-8.932v.483h.724c.322,0,1.006.241,1.006,1.247v12.553c0,2.816-1.328,4.707-2.776,4.707-.925,0-1.811-.644-1.811-2.776V214.124h-9.777v.483H294.3c.764,0,1.046.443,1.046,1.408v12.473a5.819,5.819,0,0,0,5.391,6.236h.724c2.776,0,5.07-.966,5.794-3.3v2.656h9.7Zm-25.71-6.2c0,3.621-1.086,5.512-2.052,5.512-.523,0-.925-.2-.925-1.569v-16.7h3.38v-.563h-3.38v-7.242l-.483-.04c0,4.064-4.426,7.242-8.127,7.242H278.4v.563h2.012V230.46c0,2.937,2.454,4.225,5.633,4.225,3.46,0,5.633-1.811,5.633-7.283h-.443Zm-12.594,6.2h-1.086c-.885,0-1.328-.724-1.328-1.73V214.165h-10.22v.483h1.006a1.437,1.437,0,0,1,1.529,1.328v15.893a1.666,1.666,0,0,1-1.609,1.73h-1.247v.483h12.956Zm-2.173-24.584a4.33,4.33,0,0,0-8.57,0,4.319,4.319,0,0,0,8.57,0m-11.547,24.584h-1.408c-.764,0-1.046-.483-1.046-1.448V219.717a5.819,5.819,0,0,0-5.391-6.236h-.724c-2.776,0-5.07.966-5.794,3.3v-2.656h-9.7v.483h1.247c.845,0,1.247.644,1.247,1.569v15.611a1.739,1.739,0,0,1-1.609,1.811H240.5v.443h11.749v-.4h-.684c-.322,0-1.006-.282-1.006-1.288V219.8c0-2.816,1.328-4.707,2.776-4.707.925,0,1.77.644,1.77,2.736V232.19c0,.885-.443,1.489-1.247,1.489h-.443v.443h11.507Zm-24.584-15.893a4.233,4.233,0,0,0-3.943-4.506h-.121a4.924,4.924,0,0,0-4.345,3.219l-.2-2.293h-9.858v.483h1.247c.845,0,1.368.684,1.368,1.69v15.732c0,1.006-.8,1.569-1.891,1.569H221.35v.443h13.237v-.443h-1.408c-.6,0-1.086-.483-1.086-1.65v-13c0-4.144,2.414-5.351,4.023-5.351,1.529,0,2.615.925,2.615,1.529,0,.08-.08.161-.2.2a5.791,5.791,0,0,0-2.132-.563,3.5,3.5,0,0,0-3.42,3.581v.121a3.557,3.557,0,0,0,3.581,3.42,3.865,3.865,0,0,0,3.782-3.943v-.241m-19.916,15.893h-1.247c-.845,0-1.247-.684-1.247-1.569v-17.9H209v.483h.724c.322,0,1.006.241,1.006,1.247v12.553c0,2.816-1.328,4.707-2.776,4.707-.925,0-1.811-.644-1.811-2.776V214.124H196.4v.483h1.408c.764,0,1.046.443,1.046,1.408v12.473a5.819,5.819,0,0,0,5.391,6.236h.724c2.776,0,5.07-.966,5.794-3.3v2.656h9.7ZM200.669,208.21c0-2.495-2.213-5.11-7.484-5.11s-10.944,2.736-10.944,7.2v3.661h-2.374v.563h2.374v19.514c0,1.207-.885,1.569-1.891,1.569H178.5v.523h15.531v-.523H192.22a1.523,1.523,0,0,1-1.65-1.368V214.607h4.748v-.563H190.57v-6.438a3.58,3.58,0,0,1,3.34-3.863h.6c1.811,0,2.857.563,2.857.764,0,.08-.121.08-.322.08H196a3.964,3.964,0,0,0-4.144,3.782v.161c0,2.575,2.213,3.9,4.426,3.9a4.169,4.169,0,0,0,4.386-4.023v-.2" transform="translate(-115.13 -203.1)" fill="#4e4d4d"/>
      <path id="Path_28" data-name="Path 28" d="M163.029,317.34c0,2.132-1.368,3.38-6.8,3.38-4.748,0-7.846-.523-7.846-3.822,0-1.65.563-2.937,2.615-3.259a28.741,28.741,0,0,0,3.742.362c4.144.121,8.288.483,8.288,3.34m-4.064-18.226c0,4.547-.241,5.633-2.012,5.633-1.851,0-2.293-.845-2.293-5.552,0-4.748.6-5.794,2.173-5.794,1.811,0,2.132,1.247,2.132,5.713M168.059,314c0-5.915-5.874-6.357-10.582-6.236-4.667.161-6.438.161-6.438-1.609a1.688,1.688,0,0,1,1.609-1.529,12.632,12.632,0,0,0,4.064.644c4.989,0,9.013-2.816,9.013-6.2,0-2.495-2.132-4.627-5.19-5.633a3.341,3.341,0,0,1-1.65-2.977,3.636,3.636,0,0,1,2.092-3.3.205.205,0,0,1,.2.161,4.457,4.457,0,0,0-1.006,2.414,3.361,3.361,0,0,0,3.581,3.058,3.306,3.306,0,0,0,3.058-3.179,3.671,3.671,0,0,0-3.822-3.46,4.45,4.45,0,0,0-4.587,4.305v.121a5.859,5.859,0,0,0,.644,2.454,22.052,22.052,0,0,0-2.293-.2c-4.989,0-9.013,2.776-9.013,6.2,0,2.173,1.65,4.1,4.184,5.19-2.736.6-5.271,2.293-5.271,4.868a4.035,4.035,0,0,0,3.1,4.144c-2.012.4-3.983,1.77-3.983,3.541,0,2.736,3.339,4.345,10.582,4.345,8.53.081,11.708-2.655,11.708-7.122m-21.566-1.207h-1.408c-.764,0-1.046-.483-1.046-1.448V298.872a5.819,5.819,0,0,0-5.391-6.236h-.724c-2.776,0-5.07.966-5.794,3.3V293.28h-9.7v.483h1.247c.845,0,1.247.644,1.247,1.569v15.611a1.739,1.739,0,0,1-1.609,1.811H122.07v.443h11.749v-.443h-.684c-.322,0-1.006-.282-1.006-1.288V298.912c0-2.816,1.328-4.707,2.776-4.707.925,0,1.77.644,1.77,2.736v14.4c0,.885-.443,1.489-1.247,1.489h-.443v.443h11.507Zm-25.428-.04h-1.086c-.885,0-1.328-.724-1.328-1.73V293.28H108.43v.483h1.006a1.437,1.437,0,0,1,1.529,1.328v15.893a1.666,1.666,0,0,1-1.609,1.73h-1.247v.483h12.956Zm-2.173-24.543a4.342,4.342,0,1,0-4.868,3.742,3.044,3.044,0,0,0,.6.04,4.093,4.093,0,0,0,4.265-3.782h0m-11.869,18.347c0,3.621-1.086,5.512-2.052,5.512-.523,0-.925-.2-.925-1.569V293.8h3.38v-.563h-3.38V286l-.483-.04c0,4.064-4.426,7.242-8.127,7.242H94.187v.563H96.2v15.812c0,2.937,2.454,4.225,5.633,4.225,3.46,0,5.633-1.811,5.633-7.283Zm-12.191,6.236H93.423c-.764,0-1.046-.483-1.046-1.408V298.752c0-4.587-2.9-6.116-5.915-6.116-3.581,0-5.271,1.288-5.955,3.3V283.744h-9.7v.523h1.247c.845,0,1.247.724,1.247,1.609v25.107a1.739,1.739,0,0,1-1.609,1.811H70.408v.483H82.157v-.483h-.684c-.322,0-1.006-.282-1.006-1.288V298.711c0-2.816,1.328-4.707,2.776-4.707.925,0,1.77.644,1.77,2.736v14.605c0,.925-.443,1.489-1.247,1.489h-.443v.483H94.831ZM64.655,317.34c0,2.132-1.368,3.38-6.8,3.38-4.748,0-7.846-.523-7.846-3.822,0-1.65.563-2.937,2.615-3.259a29.435,29.435,0,0,0,3.742.362c4.1.121,8.288.483,8.288,3.34m-4.1-18.226c0,4.547-.241,5.633-2.012,5.633-1.851,0-2.293-.845-2.293-5.552,0-4.748.6-5.794,2.173-5.794,1.851,0,2.132,1.247,2.132,5.713M69.644,314c0-5.915-5.874-6.357-10.582-6.236-4.667.161-6.438.161-6.438-1.609a1.688,1.688,0,0,1,1.609-1.529,12.809,12.809,0,0,0,4.064.644c4.989,0,9.013-2.816,9.013-6.2,0-2.495-2.132-4.627-5.19-5.633a3.341,3.341,0,0,1-1.65-2.977,3.636,3.636,0,0,1,2.092-3.3.205.205,0,0,1,.2.161,4.457,4.457,0,0,0-1.006,2.414,3.361,3.361,0,0,0,3.581,3.058,3.306,3.306,0,0,0,3.058-3.179,3.671,3.671,0,0,0-3.822-3.46,4.45,4.45,0,0,0-4.587,4.305v.121a5.859,5.859,0,0,0,.644,2.454,22.053,22.053,0,0,0-2.293-.2c-4.989,0-9.013,2.776-9.013,6.2,0,2.173,1.65,4.1,4.184,5.19-2.736.6-5.271,2.293-5.271,4.868a4.035,4.035,0,0,0,3.1,4.144c-2.012.4-3.983,1.77-3.983,3.541,0,2.736,3.339,4.345,10.582,4.345,8.57.081,11.708-2.655,11.708-7.122M48,312.753H46.911c-.885,0-1.328-.724-1.328-1.73V293.28H35.4v.483H36.41a1.437,1.437,0,0,1,1.529,1.328v15.893a1.666,1.666,0,0,1-1.609,1.73H35.082v.483H48.038v-.443ZM45.825,288.21a4.036,4.036,0,0,0-4.265-3.742,3.778,3.778,0,1,0-1.046,7.484,4.542,4.542,0,0,0,1.046,0,3.984,3.984,0,0,0,4.265-3.742M33.956,312.753H32.869c-.885,0-1.328-.724-1.328-1.73V283.784H21.362v.483h1.006a1.413,1.413,0,0,1,1.529,1.328v25.428a1.666,1.666,0,0,1-1.609,1.73H21v.483H33.956Z" transform="translate(-21 -251.033)" fill="#4e4d4d"/>
      <path id="Path_29" data-name="Path 29" d="M296.624,376.759a4.233,4.233,0,0,0-3.943-4.506h-.121a4.924,4.924,0,0,0-4.345,3.219l-.2-2.293H278.2v.483h1.247c.845,0,1.368.684,1.368,1.69v15.732c0,1.006-.8,1.569-1.891,1.569h-1.247v.443h13.237v-.443H289.5c-.6,0-1.086-.483-1.086-1.65v-13c0-4.144,2.414-5.351,4.023-5.351,1.529,0,2.615.925,2.615,1.529,0,.08-.08.161-.2.2a5.79,5.79,0,0,0-2.132-.563,3.5,3.5,0,0,0-3.42,3.581v.081a3.557,3.557,0,0,0,3.581,3.42,3.865,3.865,0,0,0,3.782-3.943.3.3,0,0,1-.04-.2M269.466,383.4c0,8.168-.563,9.9-2.615,9.9-2.012,0-2.615-1.167-2.615-9.978,0-8.409.4-10.26,2.615-10.26,2.736,0,2.615,3.3,2.615,10.34m8.369-.241a11.029,11.029,0,1,0-11.346,10.7h.322a10.871,10.871,0,0,0,11.024-10.7M254.3,385.289c0,4.506-2.857,7.967-6.8,7.967-2.7,0-4.064-1.931-4.064-9.415,0-8.771,1.811-10.743,4.064-10.743,2.656,0,4.064,1.609,4.064,2.012,0,.161,0,.282-.121.282a4.3,4.3,0,0,0-1.73-.362,3.942,3.942,0,0,0-4.023,3.822v.121A4.193,4.193,0,0,0,250.073,383h.08a4.133,4.133,0,0,0,4.265-3.983v-.362c0-3.018-2.816-5.955-7.242-5.955-6.84,0-11.829,4.748-11.829,10.5,0,6.317,4.909,10.622,11.306,10.622,5.754,0,8.047-4.225,8.047-8.49Zm-27.038-3.661c0,.764-.4.644-.885.644h-3.38c.121-6.759.845-9.053,2.535-9.053,1.851.04,1.73,1.69,1.73,8.409m7.122.322c0-4.506-3.1-9.214-9.013-9.214a10.386,10.386,0,0,0-10.059,10.7c0,6.2,4.225,10.3,10.582,10.3a8.052,8.052,0,0,0,8.409-7.685v-.161h-.523a7.425,7.425,0,0,1-7.081,7.242c-2.535,0-3.742-1.569-3.742-9.013,0-.4.04-.8.04-1.207h10.381c.684-.08,1.006-.241,1.006-.966m-29.009.925c0,7.765-1.891,9.656-3.018,9.656-1.368,0-1.247-.925-1.247-8.892s.241-10.1,1.69-10.1c1.328,0,2.575,2.656,2.575,9.335m9.817,9.817h-1.006c-.845,0-1.368-.241-1.368-1.207v-27.8H201.952v.443H203.4a2.189,2.189,0,0,1,2.012,2.293v9.737c-.644-2.374-1.891-3.7-4.305-3.7-4.184,0-7.846,5.391-7.846,10.823,0,5.512,3.018,10.22,7.162,10.22a4.664,4.664,0,0,0,5.029-3.742v3.34h9.737Zm-43.253-3.822c-.764,1.086-1.529,1.69-2.334,1.69-2.816,0-7.967-8.087-7.967-11.185,0-.845.684-1.529,1.851-2.132a47.307,47.307,0,0,0,8.449,11.628m1.247-16.858c0,.724-.644,1.288-1.65,1.811-2.253-3.661-3.782-7.162-3.782-9.013a1.091,1.091,0,0,1,1.127-1.086c1.972,0,4.305,6.558,4.305,8.288m15.249,5.311a4.6,4.6,0,0,0-4.426-4.788h-.121c-3.943,0-6.075,3.742-7.806,7.645a55.008,55.008,0,0,1-4.265-5.915c3.3-1.328,6.156-3.1,6.156-6.277,0-3.018-3.219-4.788-7.363-4.788-5.07,0-9.013,3.219-9.013,7.967a14.289,14.289,0,0,0,1.65,5.593c-4.064,1.65-7.846,4.225-7.846,9.334,0,4.064,3.661,7.323,8.329,7.323,3.782,0,6.438-1.127,8.65-4.144,2.615,2.495,5.231,4.184,7.283,4.184,4.587,0,8.651-4.868,8.651-9.455,0-.885-.241-1.086-.443-1.086-.161,0-.241.2-.241.282a8.246,8.246,0,0,1,.2.966,2.923,2.923,0,0,1-2.736,2.816c-2.334,0-5.512-2.736-8.57-6.277,1.65-3.621,3.259-5.834,3.742-5.834h.04a4.915,4.915,0,0,0-.684,2.253,4.448,4.448,0,0,0,4.386,4.506h.282a4.2,4.2,0,0,0,4.144-4.305" transform="translate(-101.324 -298.784)" fill="#4e4d4d"/>
    </g>
  </g>
</svg>
