<svg xmlns="http://www.w3.org/2000/svg" width="183.725" height="58.444" viewBox="0 0 183.725 58.444">
  <g id="sisustuskodasisuko-seeklogo.com" transform="translate(-83.677 -39.534)">
    <g id="Group_8" data-name="Group 8">
      <path id="Path_73" data-name="Path 73" d="M155.545,80.305a1.11,1.11,0,0,1-.009.152.311.311,0,0,1-.033.1.155.155,0,0,1-.053.057.115.115,0,0,1-.062.019H153.2v2.03h2.067a.122.122,0,0,1,.062.016.142.142,0,0,1,.053.051.317.317,0,0,1,.033.1,1.154,1.154,0,0,1,.009.16,1.044,1.044,0,0,1-.009.149.285.285,0,0,1-.033.1.175.175,0,0,1-.053.06.1.1,0,0,1-.062.021H153.2v2.487a.13.13,0,0,1-.018.062.119.119,0,0,1-.066.046.611.611,0,0,1-.12.028,1.3,1.3,0,0,1-.194.01,1.455,1.455,0,0,1-.189-.01.686.686,0,0,1-.126-.028.116.116,0,0,1-.064-.046.12.12,0,0,1-.018-.062V80.285a.294.294,0,0,1,.1-.252.326.326,0,0,1,.2-.072h2.686a.135.135,0,0,1,.062.019.154.154,0,0,1,.053.061.377.377,0,0,1,.033.107,1.244,1.244,0,0,1,.009.157m7.583,3.425a2.737,2.737,0,0,1-.16.97,1.942,1.942,0,0,1-.454.72,1.867,1.867,0,0,1-.719.448,2.856,2.856,0,0,1-.964.152,2.659,2.659,0,0,1-.9-.144,1.9,1.9,0,0,1-.7-.421,1.825,1.825,0,0,1-.447-.7,2.757,2.757,0,0,1-.157-.968V80.083a.1.1,0,0,1,.083-.108.561.561,0,0,1,.12-.028,1.534,1.534,0,0,1,.383,0,.525.525,0,0,1,.123.028.128.128,0,0,1,.062.043.12.12,0,0,1,.018.065v3.608a2.355,2.355,0,0,0,.1.725,1.354,1.354,0,0,0,.294.514,1.237,1.237,0,0,0,.46.309,1.663,1.663,0,0,0,.607.1,1.744,1.744,0,0,0,.615-.1,1.153,1.153,0,0,0,.457-.305,1.36,1.36,0,0,0,.286-.5,2.184,2.184,0,0,0,.1-.7v-3.65a.12.12,0,0,1,.018-.065.129.129,0,0,1,.064-.043.626.626,0,0,1,.123-.028,1.258,1.258,0,0,1,.191-.012,1.22,1.22,0,0,1,.187.012.533.533,0,0,1,.12.028.138.138,0,0,1,.065.043.107.107,0,0,1,.021.065Zm7.445,2.085a.144.144,0,0,1-.014.064.11.11,0,0,1-.061.047.6.6,0,0,1-.128.028,1.881,1.881,0,0,1-.22.009,1.714,1.714,0,0,1-.2-.009.467.467,0,0,1-.123-.031.187.187,0,0,1-.07-.056.421.421,0,0,1-.043-.093l-.552-1.409q-.1-.238-.2-.44a1.435,1.435,0,0,0-.248-.347.98.98,0,0,0-.337-.226,1.227,1.227,0,0,0-.466-.08h-.529v2.542a.109.109,0,0,1-.021.064.129.129,0,0,1-.064.044.578.578,0,0,1-.12.028,1.542,1.542,0,0,1-.384,0,.618.618,0,0,1-.122-.028.122.122,0,0,1-.066-.044.115.115,0,0,1-.019-.064V80.287a.294.294,0,0,1,.1-.252.326.326,0,0,1,.2-.072h1.268c.151,0,.277,0,.376.013s.191.015.269.025a2.244,2.244,0,0,1,.612.188,1.484,1.484,0,0,1,.446.328,1.32,1.32,0,0,1,.269.456,1.709,1.709,0,0,1,.09.563,1.664,1.664,0,0,1-.081.539,1.324,1.324,0,0,1-.233.42,1.535,1.535,0,0,1-.365.316,2.358,2.358,0,0,1-.474.225,1.16,1.16,0,0,1,.268.164,1.346,1.346,0,0,1,.222.239,2.123,2.123,0,0,1,.2.317c.062.12.122.256.185.407l.534,1.315c.044.111.072.188.084.232a.379.379,0,0,1,.02.105m-1.2-4.194a1.069,1.069,0,0,0-.157-.593.892.892,0,0,0-.525-.349,1.555,1.555,0,0,0-.263-.046c-.1-.01-.222-.014-.379-.014h-.669v2.012h.773a1.719,1.719,0,0,0,.543-.076,1.1,1.1,0,0,0,.381-.212.824.824,0,0,0,.224-.321,1.1,1.1,0,0,0,.072-.4m8.747,3.985a.368.368,0,0,1-.032.157.315.315,0,0,1-.08.105.331.331,0,0,1-.114.061.532.532,0,0,1-.124.019h-.261a.827.827,0,0,1-.218-.027.481.481,0,0,1-.176-.092.919.919,0,0,1-.167-.183,2.148,2.148,0,0,1-.178-.3l-1.821-3.4c-.1-.174-.191-.358-.289-.55s-.186-.38-.269-.561h-.01c.007.222.012.447.014.678s.005.46.005.688v3.6a.113.113,0,0,1-.019.062.122.122,0,0,1-.067.047.618.618,0,0,1-.122.028,1.55,1.55,0,0,1-.385,0,.562.562,0,0,1-.12-.028.108.108,0,0,1-.062-.047.1.1,0,0,1-.02-.062V80.3a.3.3,0,0,1,.1-.261.374.374,0,0,1,.23-.08h.39a1,1,0,0,1,.231.023.475.475,0,0,1,.166.076.642.642,0,0,1,.144.149,2.216,2.216,0,0,1,.146.236l1.4,2.621c.087.161.17.316.249.469s.158.3.233.451.148.292.221.434.145.287.216.432h.005c-.006-.244-.01-.5-.012-.758s0-.516,0-.76V80.1a.113.113,0,0,1,.019-.061.165.165,0,0,1,.066-.047.423.423,0,0,1,.122-.031,1.558,1.558,0,0,1,.2-.009,1.644,1.644,0,0,1,.185.009.358.358,0,0,1,.122.031.143.143,0,0,1,.062.047.1.1,0,0,1,.02.061Zm4.27.209a.123.123,0,0,1-.018.064.124.124,0,0,1-.064.044.708.708,0,0,1-.123.028,1.526,1.526,0,0,1-.382,0,.57.57,0,0,1-.122-.028.122.122,0,0,1-.067-.044.123.123,0,0,1-.018-.064V80.084a.108.108,0,0,1,.021-.065.138.138,0,0,1,.068-.043.628.628,0,0,1,.126-.028,1.181,1.181,0,0,1,.181-.012,1.278,1.278,0,0,1,.193.012.627.627,0,0,1,.123.028.134.134,0,0,1,.064.043.12.12,0,0,1,.018.065Zm7.219-5.51a1.294,1.294,0,0,1-.009.152.338.338,0,0,1-.031.1.143.143,0,0,1-.051.057.119.119,0,0,1-.067.019h-1.679v5.177a.133.133,0,0,1-.018.064.119.119,0,0,1-.065.044.654.654,0,0,1-.122.028,1.291,1.291,0,0,1-.192.01,1.476,1.476,0,0,1-.189-.01.637.637,0,0,1-.125-.028.129.129,0,0,1-.064-.044.115.115,0,0,1-.019-.064V80.637h-1.678a.126.126,0,0,1-.068-.019.128.128,0,0,1-.047-.057.34.34,0,0,1-.03-.1.837.837,0,0,1-.013-.152.9.9,0,0,1,.013-.155.362.362,0,0,1,.03-.107.138.138,0,0,1,.047-.061.126.126,0,0,1,.068-.019h4.152a.138.138,0,0,1,.067.019.144.144,0,0,1,.051.061.351.351,0,0,1,.031.107c0,.046.008.1.008.155m7.241,3.425a2.737,2.737,0,0,1-.16.97,1.929,1.929,0,0,1-.454.72,1.867,1.867,0,0,1-.719.448,2.862,2.862,0,0,1-.965.152,2.659,2.659,0,0,1-.9-.144,1.9,1.9,0,0,1-.7-.421,1.837,1.837,0,0,1-.447-.7,2.756,2.756,0,0,1-.158-.968V80.083a.121.121,0,0,1,.019-.065.128.128,0,0,1,.065-.043.561.561,0,0,1,.12-.028,1.256,1.256,0,0,1,.194-.012,1.276,1.276,0,0,1,.189.012.525.525,0,0,1,.123.028.128.128,0,0,1,.062.043.112.112,0,0,1,.018.065v3.608a2.355,2.355,0,0,0,.1.725,1.366,1.366,0,0,0,.293.514,1.241,1.241,0,0,0,.461.309,1.663,1.663,0,0,0,.607.1,1.751,1.751,0,0,0,.615-.1,1.168,1.168,0,0,0,.457-.305,1.348,1.348,0,0,0,.287-.5,2.237,2.237,0,0,0,.1-.7v-3.65a.12.12,0,0,1,.018-.065.129.129,0,0,1,.064-.043.6.6,0,0,1,.122-.028,1.273,1.273,0,0,1,.192-.012,1.229,1.229,0,0,1,.187.012.533.533,0,0,1,.12.028.129.129,0,0,1,.064.043.107.107,0,0,1,.021.065V83.73Zm7.443,2.085a.144.144,0,0,1-.014.064.111.111,0,0,1-.06.047.621.621,0,0,1-.129.028,1.881,1.881,0,0,1-.22.009,1.727,1.727,0,0,1-.2-.009.458.458,0,0,1-.122-.031.186.186,0,0,1-.072-.056.472.472,0,0,1-.043-.093l-.549-1.409c-.065-.159-.131-.306-.2-.44a1.433,1.433,0,0,0-.247-.347.99.99,0,0,0-.337-.226,1.227,1.227,0,0,0-.466-.08h-.53v2.542a.108.108,0,0,1-.02.064.135.135,0,0,1-.066.044.547.547,0,0,1-.12.028,1.542,1.542,0,0,1-.384,0,.635.635,0,0,1-.122-.028.113.113,0,0,1-.064-.044.116.116,0,0,1-.02-.064V80.287a.3.3,0,0,1,.1-.252.331.331,0,0,1,.2-.072h1.268c.15,0,.276,0,.375.013s.191.015.271.025a2.247,2.247,0,0,1,.611.188,1.5,1.5,0,0,1,.446.328,1.323,1.323,0,0,1,.27.456,1.709,1.709,0,0,1,.09.563,1.664,1.664,0,0,1-.081.539,1.3,1.3,0,0,1-.233.42,1.512,1.512,0,0,1-.365.316,2.341,2.341,0,0,1-.475.225,1.16,1.16,0,0,1,.268.164,1.388,1.388,0,0,1,.223.239,2.12,2.12,0,0,1,.2.317c.062.12.123.256.185.407l.535,1.315c.043.111.072.188.083.232a.379.379,0,0,1,.02.105m-1.2-4.194a1.061,1.061,0,0,0-.157-.593.9.9,0,0,0-.526-.349,1.566,1.566,0,0,0-.261-.046c-.1-.01-.224-.014-.38-.014h-.669v2.012h.775a1.723,1.723,0,0,0,.543-.076,1.067,1.067,0,0,0,.379-.212.813.813,0,0,0,.224-.321,1.078,1.078,0,0,0,.072-.4m7.555,3.985a1.235,1.235,0,0,1-.008.146.344.344,0,0,1-.033.1.168.168,0,0,1-.054.06.118.118,0,0,1-.067.018h-2.865a.333.333,0,0,1-.2-.071.3.3,0,0,1-.1-.252V80.287a.3.3,0,0,1,.1-.252.328.328,0,0,1,.2-.072h2.834a.127.127,0,0,1,.066.019.117.117,0,0,1,.048.061.509.509,0,0,1,.031.1.961.961,0,0,1,.012.156.854.854,0,0,1-.012.144.439.439,0,0,1-.031.1.131.131,0,0,1-.048.059.126.126,0,0,1-.066.018H208.13V82.5h2a.127.127,0,0,1,.068.021.189.189,0,0,1,.051.057.336.336,0,0,1,.031.1,1.354,1.354,0,0,1,0,.294.258.258,0,0,1-.031.1.131.131,0,0,1-.051.053.148.148,0,0,1-.068.016h-2v2.137H210.5a.13.13,0,0,1,.067.019.142.142,0,0,1,.054.057.325.325,0,0,1,.033.1,1.242,1.242,0,0,1,.008.158m6.914-1.245a1.669,1.669,0,0,1,.068-.483,1.639,1.639,0,0,1,.216-.444,2.179,2.179,0,0,1,.386-.416,4.63,4.63,0,0,1,.575-.4c-.122-.167-.228-.316-.315-.452a3.458,3.458,0,0,1-.218-.379,1.625,1.625,0,0,1-.122-.334,1.456,1.456,0,0,1-.036-.321,1.529,1.529,0,0,1,.1-.546,1.189,1.189,0,0,1,.311-.461,1.534,1.534,0,0,1,.55-.319,2.478,2.478,0,0,1,.817-.118,2.512,2.512,0,0,1,.7.089,1.376,1.376,0,0,1,.493.249,1.019,1.019,0,0,1,.3.39,1.26,1.26,0,0,1,.1.509,1.291,1.291,0,0,1-.369.937,2.857,2.857,0,0,1-.5.421,7.649,7.649,0,0,1-.731.442q.157.189.343.393c.122.139.251.276.386.414s.269.274.41.408.278.263.413.386a1.535,1.535,0,0,0,.166-.285,2.7,2.7,0,0,0,.128-.337,2.38,2.38,0,0,0,.085-.362,2.579,2.579,0,0,0,.027-.373V82.8a.16.16,0,0,1,.016-.075.13.13,0,0,1,.052-.052.359.359,0,0,1,.109-.031,1.836,1.836,0,0,1,.187-.008c.068,0,.126,0,.174,0a.5.5,0,0,1,.118.02.118.118,0,0,1,.067.051.183.183,0,0,1,.021.1v.114a2.936,2.936,0,0,1-.043.508,3.623,3.623,0,0,1-.121.488,3.072,3.072,0,0,1-.189.455,2.764,2.764,0,0,1-.251.4c.139.111.259.2.363.276s.19.135.262.18a.852.852,0,0,0,.18.1.325.325,0,0,0,.118.028.634.634,0,0,0,.088,0,.087.087,0,0,1,.066.014.139.139,0,0,1,.041.073.8.8,0,0,1,.013.17c0,.077,0,.14,0,.184a.474.474,0,0,1-.016.1.13.13,0,0,1-.04.059.267.267,0,0,1-.1.041.736.736,0,0,1-.194.019.7.7,0,0,1-.2-.033,1.3,1.3,0,0,1-.258-.113,3.323,3.323,0,0,1-.343-.219c-.131-.093-.284-.209-.459-.351a4.19,4.19,0,0,1-.409.292,2.737,2.737,0,0,1-.457.226,2.883,2.883,0,0,1-.507.148,2.8,2.8,0,0,1-.574.053,2.949,2.949,0,0,1-.551-.049,2.526,2.526,0,0,1-.483-.146,1.691,1.691,0,0,1-.4-.237,1.443,1.443,0,0,1-.488-.733,1.566,1.566,0,0,1-.07-.485m.826-.079a1.146,1.146,0,0,0,.081.438.962.962,0,0,0,.236.343,1.112,1.112,0,0,0,.393.226,1.647,1.647,0,0,0,.544.081,1.624,1.624,0,0,0,.369-.041,1.8,1.8,0,0,0,.343-.105,1.842,1.842,0,0,0,.312-.161,2.251,2.251,0,0,0,.272-.2c-.16-.139-.319-.281-.477-.431s-.312-.3-.459-.449-.29-.3-.427-.449-.262-.295-.377-.436a2.474,2.474,0,0,0-.384.292,1.553,1.553,0,0,0-.25.291,1.067,1.067,0,0,0-.136.292,1.188,1.188,0,0,0-.04.31m.535-3.212a1.035,1.035,0,0,0,.034.256,1.446,1.446,0,0,0,.107.269c.047.094.106.194.175.3s.152.226.248.36c.224-.126.412-.243.565-.349a2.244,2.244,0,0,0,.367-.306,1.011,1.011,0,0,0,.2-.3.792.792,0,0,0,.063-.313.678.678,0,0,0-.049-.256.56.56,0,0,0-.153-.217.77.77,0,0,0-.268-.15,1.409,1.409,0,0,0-.8.006.786.786,0,0,0-.276.167.639.639,0,0,0-.161.243.751.751,0,0,0-.052.282m15.886,1.791a4.214,4.214,0,0,1-.2,1.354,2.469,2.469,0,0,1-.58.961,2.4,2.4,0,0,1-.935.57,4.1,4.1,0,0,1-1.32.188h-1.264a.335.335,0,0,1-.2-.071.294.294,0,0,1-.094-.252V80.287a.3.3,0,0,1,.094-.252.33.33,0,0,1,.2-.072h1.353a3.761,3.761,0,0,1,1.309.2,2.414,2.414,0,0,1,.9.577,2.5,2.5,0,0,1,.55.912,3.691,3.691,0,0,1,.186,1.208m-.835.033a3.263,3.263,0,0,0-.121-.9,1.967,1.967,0,0,0-.375-.721,1.751,1.751,0,0,0-.649-.475,2.566,2.566,0,0,0-1.011-.17h-.807v4.646h.817a2.846,2.846,0,0,0,.964-.142,1.583,1.583,0,0,0,.655-.44,1.884,1.884,0,0,0,.394-.741,3.733,3.733,0,0,0,.133-1.054m7.269,2.712a.9.9,0,0,1-.01.146.3.3,0,0,1-.032.1.157.157,0,0,1-.053.06.119.119,0,0,1-.068.018h-2.864a.336.336,0,0,1-.2-.071.3.3,0,0,1-.1-.252V80.287a.3.3,0,0,1,.1-.252.329.329,0,0,1,.2-.072h2.832a.131.131,0,0,1,.068.019.128.128,0,0,1,.049.061.406.406,0,0,1,.03.1.961.961,0,0,1,.012.156.854.854,0,0,1-.012.144.4.4,0,0,1-.03.1.132.132,0,0,1-.049.059.125.125,0,0,1-.068.018h-2.334V82.5h2a.123.123,0,0,1,.067.021.177.177,0,0,1,.051.057.29.29,0,0,1,.029.1.967.967,0,0,1,.01.152.823.823,0,0,1-.01.142.28.28,0,0,1-.029.1.131.131,0,0,1-.051.053.144.144,0,0,1-.067.016h-2v2.137h2.366a.134.134,0,0,1,.068.019.128.128,0,0,1,.053.057.28.28,0,0,1,.032.1,1.058,1.058,0,0,1,.01.158m6.3-1.347a1.729,1.729,0,0,1-.155.747,1.6,1.6,0,0,1-.429.556,1.892,1.892,0,0,1-.645.344,2.711,2.711,0,0,1-.8.114,2.918,2.918,0,0,1-.555-.051,3.055,3.055,0,0,1-.457-.124,2.017,2.017,0,0,1-.338-.152.968.968,0,0,1-.189-.132.369.369,0,0,1-.079-.142.863.863,0,0,1-.026-.229,1.474,1.474,0,0,1,.01-.168.4.4,0,0,1,.029-.108.125.125,0,0,1,.046-.059.113.113,0,0,1,.064-.015.372.372,0,0,1,.182.077,3.14,3.14,0,0,0,.3.172,2.8,2.8,0,0,0,.446.172,1.994,1.994,0,0,0,.6.081,1.583,1.583,0,0,0,.474-.068,1.117,1.117,0,0,0,.368-.2.844.844,0,0,0,.238-.312,1.019,1.019,0,0,0,.083-.42.777.777,0,0,0-.116-.433,1.16,1.16,0,0,0-.3-.317,2.593,2.593,0,0,0-.431-.248l-.5-.232a4.74,4.74,0,0,1-.494-.26,2,2,0,0,1-.429-.337,1.552,1.552,0,0,1-.306-.453,1.488,1.488,0,0,1-.119-.626,1.568,1.568,0,0,1,.136-.665,1.375,1.375,0,0,1,.378-.492,1.718,1.718,0,0,1,.578-.3,2.465,2.465,0,0,1,.722-.1,2.259,2.259,0,0,1,.4.036,2.592,2.592,0,0,1,.379.093,2.063,2.063,0,0,1,.315.129.745.745,0,0,1,.181.113.332.332,0,0,1,.059.071.234.234,0,0,1,.023.064.447.447,0,0,1,.014.1,1.4,1.4,0,0,1,.005.142,1.342,1.342,0,0,1-.007.149.751.751,0,0,1-.02.108.125.125,0,0,1-.039.064.083.083,0,0,1-.058.021.362.362,0,0,1-.16-.065c-.072-.042-.159-.092-.265-.146a2.558,2.558,0,0,0-.372-.146,1.566,1.566,0,0,0-.481-.068,1.21,1.21,0,0,0-.434.068.87.87,0,0,0-.3.178.684.684,0,0,0-.18.261.858.858,0,0,0-.06.323.773.773,0,0,0,.116.429,1.173,1.173,0,0,0,.307.319,2.73,2.73,0,0,0,.436.253l.5.234q.255.119.5.258a2,2,0,0,1,.436.333,1.5,1.5,0,0,1,.31.452,1.534,1.534,0,0,1,.115.615m3.818,1.556a.115.115,0,0,1-.019.064.12.12,0,0,1-.064.044.667.667,0,0,1-.123.028,1.249,1.249,0,0,1-.191.012,1.291,1.291,0,0,1-.19-.012.613.613,0,0,1-.123-.028.119.119,0,0,1-.066-.044.123.123,0,0,1-.018-.064V80.084a.114.114,0,0,1,.02-.065.141.141,0,0,1,.069-.043.638.638,0,0,1,.124-.028,1.2,1.2,0,0,1,.183-.012,1.249,1.249,0,0,1,.191.012.579.579,0,0,1,.123.028.125.125,0,0,1,.064.043.113.113,0,0,1,.019.065Zm7.961-5.039a1.326,1.326,0,0,1-.009.153.493.493,0,0,1-.028.112.148.148,0,0,1-.046.062.1.1,0,0,1-.062.018.41.41,0,0,1-.184-.087,2.673,2.673,0,0,0-.345-.194,3.141,3.141,0,0,0-.518-.194,2.572,2.572,0,0,0-.718-.088,2.1,2.1,0,0,0-.886.18,1.908,1.908,0,0,0-.664.5,2.253,2.253,0,0,0-.418.756,3.039,3.039,0,0,0-.146.952,2.964,2.964,0,0,0,.16,1.014,2.15,2.15,0,0,0,.44.748,1.828,1.828,0,0,0,.672.461,2.255,2.255,0,0,0,.855.157,2.423,2.423,0,0,0,.561-.068,2.09,2.09,0,0,0,.529-.2V83.316h-1.384a.127.127,0,0,1-.118-.077.567.567,0,0,1-.041-.245,1.24,1.24,0,0,1,.01-.151.3.3,0,0,1,.031-.1.171.171,0,0,1,.047-.057.128.128,0,0,1,.07-.019h1.9a.323.323,0,0,1,.1.019.326.326,0,0,1,.093.055.247.247,0,0,1,.064.1.48.48,0,0,1,.023.149v2.275a.472.472,0,0,1-.042.207.357.357,0,0,1-.175.154,3.568,3.568,0,0,1-.346.148c-.142.051-.287.1-.438.133a3.9,3.9,0,0,1-.912.111,3.328,3.328,0,0,1-1.237-.216,2.511,2.511,0,0,1-.921-.611,2.632,2.632,0,0,1-.575-.95,3.961,3.961,0,0,1,.017-2.524,2.824,2.824,0,0,1,.6-.983,2.719,2.719,0,0,1,.935-.629,3.362,3.362,0,0,1,1.852-.163,4.208,4.208,0,0,1,.533.14,2.08,2.08,0,0,1,.393.176,1.19,1.19,0,0,1,.22.155.325.325,0,0,1,.082.137.858.858,0,0,1,.023.226m7.877,4.83a.341.341,0,0,1-.031.157.315.315,0,0,1-.08.105.331.331,0,0,1-.114.061.517.517,0,0,1-.124.019H266.6a.833.833,0,0,1-.218-.027.488.488,0,0,1-.176-.092.867.867,0,0,1-.168-.183,1.974,1.974,0,0,1-.176-.3l-1.822-3.4c-.1-.174-.192-.358-.288-.55s-.187-.38-.27-.561h-.009c.006.222.01.447.013.678s.006.46.006.688v3.6a.114.114,0,0,1-.02.062.12.12,0,0,1-.065.047.636.636,0,0,1-.122.028,1.287,1.287,0,0,1-.193.012,1.26,1.26,0,0,1-.193-.012.578.578,0,0,1-.12-.028.113.113,0,0,1-.064-.047.109.109,0,0,1-.02-.062V80.3a.3.3,0,0,1,.105-.261.371.371,0,0,1,.229-.08h.39a1,1,0,0,1,.232.023.479.479,0,0,1,.165.076.664.664,0,0,1,.144.149,2.06,2.06,0,0,1,.146.236l1.4,2.621c.085.161.169.316.248.469s.157.3.233.451.148.292.22.434.144.287.215.432h.006c-.007-.244-.011-.5-.013-.758s0-.516,0-.76V80.1a.106.106,0,0,1,.02-.061.152.152,0,0,1,.066-.047.415.415,0,0,1,.122-.031,1.52,1.52,0,0,1,.2-.009,1.612,1.612,0,0,1,.184.009.365.365,0,0,1,.123.031.16.16,0,0,1,.063.047.111.111,0,0,1,.018.061v5.508Z" fill="#f07444"/>
      <path id="Path_74" data-name="Path 74" d="M160.962,64.724a3.991,3.991,0,0,1-.339,1.677,3.552,3.552,0,0,1-.946,1.257,4.235,4.235,0,0,1-1.448.789,5.9,5.9,0,0,1-1.83.272,6.248,6.248,0,0,1-1.273-.124,7.362,7.362,0,0,1-1.067-.3,5.6,5.6,0,0,1-.789-.356,1.969,1.969,0,0,1-.442-.3.77.77,0,0,1-.174-.293,1.408,1.408,0,0,1-.053-.42,1.839,1.839,0,0,1,.021-.306.8.8,0,0,1,.06-.194.2.2,0,0,1,.1-.1.293.293,0,0,1,.126-.028.893.893,0,0,1,.431.189,6.156,6.156,0,0,0,.718.414,6.552,6.552,0,0,0,1.054.413,4.829,4.829,0,0,0,1.432.192,4,4,0,0,0,1.22-.179,2.85,2.85,0,0,0,.958-.518,2.294,2.294,0,0,0,.626-.832,2.712,2.712,0,0,0,.222-1.127,2.121,2.121,0,0,0-.283-1.121,2.958,2.958,0,0,0-.745-.822,6.3,6.3,0,0,0-1.051-.644c-.392-.191-.793-.384-1.2-.576s-.811-.4-1.2-.626a5.22,5.22,0,0,1-1.049-.789,3.532,3.532,0,0,1-.745-1.062A3.4,3.4,0,0,1,153,57.757a3.523,3.523,0,0,1,.295-1.465,3.117,3.117,0,0,1,.828-1.1,3.71,3.71,0,0,1,1.279-.691,5.325,5.325,0,0,1,1.637-.24,4.841,4.841,0,0,1,.906.087,6.813,6.813,0,0,1,.864.224,5.11,5.11,0,0,1,.73.305,2.017,2.017,0,0,1,.425.272,1.012,1.012,0,0,1,.13.152.49.49,0,0,1,.047.126.916.916,0,0,1,.034.18c.007.068.01.152.01.256a2.206,2.206,0,0,1-.014.256,1.036,1.036,0,0,1-.049.2.346.346,0,0,1-.083.126.165.165,0,0,1-.114.043.8.8,0,0,1-.364-.157c-.165-.1-.368-.224-.615-.354a5.063,5.063,0,0,0-.883-.354,3.981,3.981,0,0,0-1.163-.157,3.32,3.32,0,0,0-1.123.174,2.235,2.235,0,0,0-.793.475,1.914,1.914,0,0,0-.475.7,2.316,2.316,0,0,0-.158.85,2.129,2.129,0,0,0,.284,1.121,3.005,3.005,0,0,0,.75.827,6.11,6.11,0,0,0,1.063.648q.593.288,1.207.578t1.209.62a5.154,5.154,0,0,1,1.06.784,3.5,3.5,0,0,1,.751,1.056,3.29,3.29,0,0,1,.284,1.427m14.744,3.592a.23.23,0,0,1-.032.12.234.234,0,0,1-.109.088.843.843,0,0,1-.2.053,2.209,2.209,0,0,1-.636,0,.943.943,0,0,1-.207-.053.213.213,0,0,1-.141-.208V54.665a.207.207,0,0,1,.037-.12.261.261,0,0,1,.121-.088,1.038,1.038,0,0,1,.206-.055,1.836,1.836,0,0,1,.3-.021,2.138,2.138,0,0,1,.321.021.846.846,0,0,1,.2.055.213.213,0,0,1,.141.208Zm21.7-3.592a4.021,4.021,0,0,1-.337,1.677,3.568,3.568,0,0,1-.948,1.257,4.249,4.249,0,0,1-1.447.789,5.912,5.912,0,0,1-1.83.272,6.26,6.26,0,0,1-1.275-.124,7.567,7.567,0,0,1-1.067-.3,5.6,5.6,0,0,1-.789-.356,1.9,1.9,0,0,1-.44-.3.736.736,0,0,1-.175-.293,1.371,1.371,0,0,1-.055-.42,1.839,1.839,0,0,1,.021-.306.8.8,0,0,1,.06-.194.194.194,0,0,1,.1-.1.29.29,0,0,1,.126-.028.891.891,0,0,1,.43.189,6.242,6.242,0,0,0,.718.414,6.566,6.566,0,0,0,1.055.413,4.82,4.82,0,0,0,1.432.192,4,4,0,0,0,1.219-.179,2.831,2.831,0,0,0,.958-.518,2.319,2.319,0,0,0,.627-.832,2.709,2.709,0,0,0,.222-1.127,2.121,2.121,0,0,0-.283-1.121,2.974,2.974,0,0,0-.745-.822,6.287,6.287,0,0,0-1.05-.644c-.391-.191-.794-.384-1.2-.576s-.811-.4-1.2-.626a5.256,5.256,0,0,1-1.05-.789,3.589,3.589,0,0,1-.746-1.062,3.417,3.417,0,0,1-.283-1.447,3.507,3.507,0,0,1,.293-1.465,3.114,3.114,0,0,1,.827-1.1,3.729,3.729,0,0,1,1.279-.691,5.331,5.331,0,0,1,1.638-.24,4.81,4.81,0,0,1,.9.087,6.8,6.8,0,0,1,.866.224,5.11,5.11,0,0,1,.73.305,1.96,1.96,0,0,1,.423.272.953.953,0,0,1,.13.152.569.569,0,0,1,.05.126,1.007,1.007,0,0,1,.032.18,2.5,2.5,0,0,1,.012.256,2.18,2.18,0,0,1-.016.256.8.8,0,0,1-.051.2.309.309,0,0,1-.081.126.163.163,0,0,1-.113.043.8.8,0,0,1-.365-.157c-.165-.1-.368-.224-.617-.354a5.007,5.007,0,0,0-.881-.354,4,4,0,0,0-1.166-.157,3.314,3.314,0,0,0-1.12.174,2.276,2.276,0,0,0-.8.475,1.931,1.931,0,0,0-.472.7,2.315,2.315,0,0,0-.157.85,2.137,2.137,0,0,0,.281,1.121,3,3,0,0,0,.752.827,6.1,6.1,0,0,0,1.062.648q.593.288,1.207.578t1.209.62a5.2,5.2,0,0,1,1.062.784,3.506,3.506,0,0,1,.749,1.056,3.218,3.218,0,0,1,.29,1.427m23.508-1.372a6.625,6.625,0,0,1-.366,2.286,4.629,4.629,0,0,1-1.039,1.688,4.37,4.37,0,0,1-1.635,1.039,6.141,6.141,0,0,1-2.144.354,5.645,5.645,0,0,1-1.986-.338,4.3,4.3,0,0,1-1.567-1,4.526,4.526,0,0,1-1.024-1.633,6.4,6.4,0,0,1-.365-2.249V54.664a.247.247,0,0,1,.032-.12.232.232,0,0,1,.115-.088,1.152,1.152,0,0,1,.2-.055,1.9,1.9,0,0,1,.316-.021,2.135,2.135,0,0,1,.314.021.93.93,0,0,1,.207.055.214.214,0,0,1,.109.088.217.217,0,0,1,.033.12v8.622a6.063,6.063,0,0,0,.256,1.85,3.51,3.51,0,0,0,.74,1.322,3.067,3.067,0,0,0,1.177.795,4.3,4.3,0,0,0,1.562.267,4.508,4.508,0,0,0,1.572-.256,2.966,2.966,0,0,0,1.171-.779,3.544,3.544,0,0,0,.733-1.3,5.854,5.854,0,0,0,.256-1.824v-8.7a.247.247,0,0,1,.032-.12.229.229,0,0,1,.111-.088.977.977,0,0,1,.206-.055,2.038,2.038,0,0,1,.317-.021,2.135,2.135,0,0,1,.314.021.956.956,0,0,1,.208.055.2.2,0,0,1,.107.088.21.21,0,0,1,.034.12ZM244.033,68.3a.38.38,0,0,1-.02.129.2.2,0,0,1-.1.094.83.83,0,0,1-.206.059,2.23,2.23,0,0,1-.339.021c-.131,0-.262-.008-.4-.021a.669.669,0,0,1-.31-.093.733.733,0,0,1-.186-.168l-5.692-7.228v7.228a.242.242,0,0,1-.034.12.235.235,0,0,1-.109.088.92.92,0,0,1-.2.053,2,2,0,0,1-.321.021,2.169,2.169,0,0,1-.317-.021,1.009,1.009,0,0,1-.206-.053.237.237,0,0,1-.108-.088.229.229,0,0,1-.034-.12V54.665a.219.219,0,0,1,.142-.208.95.95,0,0,1,.206-.055,2.038,2.038,0,0,1,.317-.021,2.138,2.138,0,0,1,.321.021.87.87,0,0,1,.2.055.223.223,0,0,1,.109.088.236.236,0,0,1,.034.12v6.4l5.452-6.4a.792.792,0,0,1,.142-.131.659.659,0,0,1,.174-.087,1.175,1.175,0,0,1,.23-.049,2.9,2.9,0,0,1,.326-.016,1.981,1.981,0,0,1,.314.021.673.673,0,0,1,.191.06.208.208,0,0,1,.094.088.29.29,0,0,1,.02.114.471.471,0,0,1-.059.229,1.3,1.3,0,0,1-.2.26l-5.127,5.867,5.475,6.869a1.555,1.555,0,0,1,.185.273.33.33,0,0,1,.033.132M267.4,61.327a11.2,11.2,0,0,1-.387,3.054,6.532,6.532,0,0,1-1.158,2.33A5.135,5.135,0,0,1,263.91,68.2a6.709,6.709,0,0,1-2.743.522,6.634,6.634,0,0,1-2.7-.5,4.7,4.7,0,0,1-1.85-1.415,5.991,5.991,0,0,1-1.067-2.247,11.929,11.929,0,0,1-.343-2.995,11.016,11.016,0,0,1,.382-3,6.238,6.238,0,0,1,1.159-2.3,5.2,5.2,0,0,1,1.948-1.476,6.69,6.69,0,0,1,2.748-.522,6.587,6.587,0,0,1,2.656.49,4.812,4.812,0,0,1,1.858,1.4,6,6,0,0,1,1.088,2.221,11.376,11.376,0,0,1,.351,2.95m-1.415.121a11.277,11.277,0,0,0-.234-2.347,5.459,5.459,0,0,0-.773-1.9,3.787,3.787,0,0,0-1.432-1.275,4.765,4.765,0,0,0-2.209-.462,4.607,4.607,0,0,0-2.207.484,4.123,4.123,0,0,0-1.458,1.3,5.442,5.442,0,0,0-.8,1.9,10.479,10.479,0,0,0-.245,2.3,12.069,12.069,0,0,0,.222,2.39,5.484,5.484,0,0,0,.757,1.921,3.7,3.7,0,0,0,1.426,1.279,4.81,4.81,0,0,0,2.232.462,4.571,4.571,0,0,0,2.23-.5,4.089,4.089,0,0,0,1.461-1.328,5.646,5.646,0,0,0,.794-1.926,10.754,10.754,0,0,0,.241-2.3" fill="#f07444"/>
      <path id="Path_75" data-name="Path 75" d="M124.232,82.372V74.394H95.5L83.678,79.126l25.916,7.459Z" fill="#f3936d"/>
      <path id="Path_76" data-name="Path 76" d="M109.594,50.929l-14.64,4.213v7.975h28.728l11.826-4.732Z" fill="#f3936d"/>
    </g>
    <path id="Path_77" data-name="Path 77" d="M109.594,86.585,83.678,79.126V90.519l25.916,7.459Z" fill="#f07444"/>
    <path id="Path_78" data-name="Path 78" d="M109.594,50.929l25.914,7.456V46.993l-25.914-7.459Z" fill="#f95f23"/>
    <path id="Path_79" data-name="Path 79" d="M109.42,74.394h14.812v7.978l-14.638,4.213V97.978l25.914-7.459v-27.4H109.42Z" fill="#f95f23"/>
    <path id="Path_80" data-name="Path 80" d="M109.42,63.117H94.954V55.142l14.64-4.213v-11.4L83.677,46.993v27.4H109.42Z" fill="#f07444"/>
  </g>
</svg>
