<svg xmlns="http://www.w3.org/2000/svg" width="251.934" height="76.252" viewBox="0 0 251.934 76.252">
  <g id="mazzonetto-wood-floors-seeklogo.com" transform="translate(131.5 -184.2)">
    <path id="XMLID_3_" d="M120.434,260.452H-131.5V184.2H120.434Z" fill="#f07444"/>
    <path id="XMLID_126_" d="M403.659,213.146a3.391,3.391,0,0,0,1.428-.336,3.017,3.017,0,0,0,1.05-1.008,2.906,2.906,0,0,0,.378-1.428,2.643,2.643,0,0,0-.378-1.386,2.433,2.433,0,0,0-1.05-1.008,2.886,2.886,0,0,0-2.855,0,3.017,3.017,0,0,0-1.05,1.008,2.753,2.753,0,0,0-.378,1.386,2.906,2.906,0,0,0,.378,1.428,3.017,3.017,0,0,0,1.05,1.008,3.391,3.391,0,0,0,1.428.336m0,.5a3.646,3.646,0,0,1-1.638-.42,3.741,3.741,0,0,1-1.26-1.176,3.366,3.366,0,0,1-.462-1.68,3.312,3.312,0,0,1,1.722-2.855,3.569,3.569,0,0,1,3.359,0,2.841,2.841,0,0,1,1.218,1.218,3.214,3.214,0,0,1,.462,1.638,3.366,3.366,0,0,1-.462,1.68,3.084,3.084,0,0,1-1.26,1.176,3.972,3.972,0,0,1-1.68.42m-.63-3.443h.462a.737.737,0,0,0,.63-.252.807.807,0,0,0,.168-.5.988.988,0,0,0-.084-.336.506.506,0,0,0-.21-.21c-.084-.084-.252-.084-.462-.084h-.5v1.386Zm0,2.183h-.63v-4.073h1.3a1.05,1.05,0,0,1,.714.168.824.824,0,0,1,.378.378,1.368,1.368,0,0,1,.168.546,1.269,1.269,0,0,1-.21.672,1.047,1.047,0,0,1-.63.462,1.875,1.875,0,0,1,.462.588l.672,1.26H404.5l-.546-1.05-.126-.252c-.168-.252-.252-.378-.336-.378h-.462v1.68Z" transform="translate(-308.502 -13.285)" fill="#fff"/>
    <path id="XMLID_2_" d="M-79.2,212.836h7.642l2.9,11.379,2.9-11.379h7.6v18.727h-4.745V217.287l-3.611,14.276H-70.8l-3.611-14.276v14.276h-4.745V212.836Zm37.16,18.727h6.046l-7.012-18.727h-6.34l-7.012,18.727h5.92l.924-3.065h6.508Zm-6.256-7.138,2.057-6.718,2.057,6.718Zm13.688-7.6h9.364l-10.371,10.833v3.9h17.761v-4.031H-28.771l10.5-10.959v-3.737H-34.608Zm18.853,0h9.406l-10.413,10.833v3.9H1v-4.031H-9.876l10.5-10.959v-3.737H-15.755ZM2.889,222.2a10.407,10.407,0,0,0,1.3,5.459,7.672,7.672,0,0,0,3.359,3.191,12.059,12.059,0,0,0,5.249,1.008A10.383,10.383,0,0,0,18,230.681a7.993,7.993,0,0,0,3.191-3.275,11.235,11.235,0,0,0,1.092-5.375c0-3.023-.84-5.375-2.519-7.012q-2.519-2.519-7.18-2.519a9.492,9.492,0,0,0-7.1,2.561,9.614,9.614,0,0,0-2.6,7.138m5.794.042a6.367,6.367,0,0,1,1.05-4.115,3.46,3.46,0,0,1,2.813-1.218,3.707,3.707,0,0,1,2.9,1.218,5.743,5.743,0,0,1,1.05,3.863c0,2.1-.336,3.527-1.008,4.325a3.559,3.559,0,0,1-2.855,1.218,3.559,3.559,0,0,1-2.855-1.218,6.22,6.22,0,0,1-1.092-4.073m16.754,9.322H30.9V221.234l7.012,10.329h5.459V212.836H37.907v10.371l-7.054-10.371H25.437Zm21.708,0H62.933v-4.241H52.939v-3.7h9.028v-3.821H52.939v-2.981h9.741v-3.989H47.187v18.727ZM64.78,217.455h5.878v14.108h5.794V217.455h5.878v-4.619H64.78Zm18.853,0h5.878v14.108h5.794V217.455h5.878v-4.619H83.633Zm18.559,4.745a10.407,10.407,0,0,0,1.3,5.459,7.9,7.9,0,0,0,3.359,3.191,12.059,12.059,0,0,0,5.249,1.008,10.383,10.383,0,0,0,5.207-1.176,7.993,7.993,0,0,0,3.191-3.275,11.755,11.755,0,0,0,1.092-5.375c0-3.023-.84-5.375-2.519-7.012q-2.519-2.519-7.18-2.519a9.492,9.492,0,0,0-7.1,2.561,9.614,9.614,0,0,0-2.6,7.138m5.794.042a6.367,6.367,0,0,1,1.05-4.115,3.46,3.46,0,0,1,2.813-1.218,3.707,3.707,0,0,1,2.9,1.218,5.743,5.743,0,0,1,1.05,3.863c0,2.1-.336,3.527-1.008,4.325a4.006,4.006,0,0,1-5.752,0,6.493,6.493,0,0,1-1.05-4.073M24.261,255.749a5.126,5.126,0,0,0-.378,1.722,1.344,1.344,0,0,0,1.176,1.26c1.386,0,3.359-1.806,4.451-3.275.294-.378.42-.378.336-.042a6.645,6.645,0,0,0-.42,1.973,1.557,1.557,0,0,0,1.3,1.344c.924,0,2.771-.84,4.451-2.855a9.689,9.689,0,0,0,2.561-5.543c0-.588-.168-1.428-.924-1.428a.878.878,0,0,0-.882.84,5.485,5.485,0,0,1,.21,1.638,7.186,7.186,0,0,1-1.47,3.9c-.966,1.386-2.183,2.225-2.9,2.225-.546,0-.882-.336-.882-1.008a11.6,11.6,0,0,1,1.26-4.745,5.783,5.783,0,0,0,.8-2.1.662.662,0,0,0-.714-.672c-.42,0-.924.5-1.092,1.26a12.328,12.328,0,0,1-1.512,3.737c-.8,1.218-2.6,3.569-3.653,3.569a.493.493,0,0,1-.5-.546,4.88,4.88,0,0,1,.462-1.638l1.848-4.871c.336-.882-.168-1.554-.714-1.554-1.428,0-2.981,1.554-3.7,2.6a.34.34,0,0,0,.336.378c.714-.84,1.68-1.638,2.141-1.638.336,0,.294.336.084.882Zm22.3-3.947c.084-1.68-.714-2.939-2.393-2.939a4.515,4.515,0,0,0-3.233,1.512,8.925,8.925,0,0,0-2.561,5.207c-.126,2.015.84,3.107,2.351,3.107a4.476,4.476,0,0,0,3.317-1.6,8.3,8.3,0,0,0,2.519-5.291m-4.241-1.134c.672-.924,1.218-1.134,1.722-1.134.8,0,.966.84.924,1.554a14.247,14.247,0,0,1-2.183,5.711c-.756,1.008-1.344,1.218-1.848,1.218-.672,0-1.008-.672-.966-1.512a14.1,14.1,0,0,1,2.351-5.836m13.73,1.134c.084-1.68-.714-2.939-2.393-2.939a4.515,4.515,0,0,0-3.233,1.512,8.6,8.6,0,0,0-2.519,5.207c-.126,2.015.84,3.107,2.351,3.107a4.6,4.6,0,0,0,3.359-1.6,9.069,9.069,0,0,0,2.435-5.291m-4.241-1.134c.672-.924,1.218-1.134,1.68-1.134.84,0,.966.84.924,1.554a14.247,14.247,0,0,1-2.183,5.711c-.756,1.008-1.344,1.218-1.848,1.218-.672,0-1.008-.672-.966-1.512a14.884,14.884,0,0,1,2.393-5.836m13.6-1.092a1.356,1.356,0,0,0-1.176-.714,6.78,6.78,0,0,0-4.2,2.057,9.7,9.7,0,0,0-3.107,6.088c0,.924.5,1.68,1.386,1.68,2.267,0,4.031-2.267,5.627-4.409l.084.042-.8,2.309a3.645,3.645,0,0,0-.294,1.344.726.726,0,0,0,.756.756c1.218,0,3.359-1.931,3.989-3.191-.042-.21-.126-.294-.336-.294a7.124,7.124,0,0,1-2.561,2.1c-.21,0-.252-.252-.126-.546.21-.714,1.3-4.451,3.611-10.791.714-1.931,1.05-2.813,1.47-4.115l-.084-.126a8.761,8.761,0,0,0-2.771.462.327.327,0,0,0-.084.336l.546.378c.336.21.252.63-.21,1.931Zm-3.023.966a3.083,3.083,0,0,1,1.764-1.008c.588,0,.882.714.588,1.68a9.9,9.9,0,0,1-2.855,4.493c-1.6,1.638-2.813,2.057-3.149,2.057a.5.5,0,0,1-.462-.5,4.845,4.845,0,0,1,.714-2.225,26.19,26.19,0,0,1,3.4-4.493m19.063-.5a.657.657,0,0,0,.252-.84H78.763a17.46,17.46,0,0,1,2.183-5.459,2.439,2.439,0,0,1,1.68-1.26c.588,0,1.26.42,1.3,1.722a.368.368,0,0,0,.336.378c.378,0,1.008-.714,1.008-1.344a1.722,1.722,0,0,0-1.806-1.554,4.724,4.724,0,0,0-3.737,1.931,13.78,13.78,0,0,0-2.6,5.543H75.11c-.294.21-.378.672-.168.84h1.931c-1.134,3.821-1.931,7.81-3.023,11.5-.546,1.806-1.008,1.973-1.512,1.973a2.777,2.777,0,0,1-1.764-.966.359.359,0,0,0-.546-.084,1.357,1.357,0,0,0-.546,1.05c0,.336.462,1.134,1.722,1.134a4.283,4.283,0,0,0,2.813-1.26,9.38,9.38,0,0,0,1.848-3.779c.756-2.561,1.386-4.829,2.057-7.432.294-1.008.462-1.764.588-2.183H81.45Zm6.676-4.2c.84-2.519,1.092-3.191,1.386-4.031l-.126-.126a13,13,0,0,0-2.939.714.236.236,0,0,0,0,.378l.42.168c.336.168.588.378.042,2.015L83.213,256a7.4,7.4,0,0,0-.5,1.973c0,.378.21.714.924.714,1.932,0,3.4-1.931,4.031-3.107,0-.21-.126-.336-.378-.336C86.195,256.462,85.1,257.6,84.6,257.6c-.252,0-.294-.252-.084-.756ZM97.28,251.8c.084-1.68-.714-2.939-2.393-2.939a4.515,4.515,0,0,0-3.233,1.512,8.6,8.6,0,0,0-2.519,5.207c-.168,2.015.84,3.107,2.309,3.107a4.476,4.476,0,0,0,3.317-1.6A8.758,8.758,0,0,0,97.28,251.8m-4.241-1.134c.672-.924,1.26-1.134,1.722-1.134.8,0,.966.84.924,1.554A14.247,14.247,0,0,1,93.5,256.8c-.756,1.008-1.344,1.218-1.848,1.218-.672,0-1.008-.672-.966-1.512a13.545,13.545,0,0,1,2.351-5.836m13.73,1.134c.084-1.68-.714-2.939-2.393-2.939a4.371,4.371,0,0,0-3.191,1.512,8.925,8.925,0,0,0-2.561,5.207c-.126,2.015.84,3.107,2.351,3.107a4.476,4.476,0,0,0,3.317-1.6,8.909,8.909,0,0,0,2.477-5.291m-4.283-1.134c.672-.924,1.26-1.134,1.722-1.134.84,0,.966.84.924,1.554a14.247,14.247,0,0,1-2.183,5.711c-.756,1.008-1.344,1.218-1.848,1.218-.672,0-1.008-.672-.966-1.512a14.1,14.1,0,0,1,2.351-5.836m9.448.42c.21-.63.63-2.225-.546-2.225-1.134,0-2.015.966-2.771,2.225-.042.294.126.42.378.378.42-.546,1.05-1.218,1.638-1.218.21,0,.252.252.21.5-.63,2.309-2.1,6.424-2.393,7.348-.168.5.5.588.756.588.21,0,.294-.084.378-.294a38.481,38.481,0,0,1,3.947-7.348c.336-.462.588-.714.84-.714s.378.294.5.924c.084.5.462.462.756.126a2.8,2.8,0,0,0,.5-1.386c0-.336-.126-1.134-.924-1.134a2.372,2.372,0,0,0-1.68,1.218,31.206,31.206,0,0,0-2.435,3.947h-.126l.966-2.939m9.657-.882a1.417,1.417,0,0,0-1.386-1.344,2.966,2.966,0,0,0-1.722.756,3.1,3.1,0,0,0-1.386,2.435,5.082,5.082,0,0,0,.8,2.183,4.693,4.693,0,0,1,.882,2.057,1.27,1.27,0,0,1-1.134,1.344,2.666,2.666,0,0,1-1.6-.924.456.456,0,0,0-.63,0,1.171,1.171,0,0,0-.336.756,1.391,1.391,0,0,0,1.428,1.26,3.5,3.5,0,0,0,2.351-.84,3.231,3.231,0,0,0,1.218-2.225,4.321,4.321,0,0,0-.882-2.6,4.026,4.026,0,0,1-.8-2.141.932.932,0,0,1,.966-.924,1.742,1.742,0,0,1,1.428.756.392.392,0,0,0,.462.21,1.158,1.158,0,0,0,.336-.756" transform="translate(-30.34 -16.417)" fill="#fff"/>
  </g>
</svg>
