<svg xmlns="http://www.w3.org/2000/svg" width="168.759" height="105.871" viewBox="0 0 168.759 105.871">
  <g id="celio-furniture-seeklogo.com" transform="translate(77.9 -71.6)">
    <g id="Group_4" data-name="Group 4" transform="translate(-77.9 71.6)">
      <path id="Path_1" data-name="Path 1" d="M-56.81,71.6A21.191,21.191,0,0,0-77.9,92.774V156.3a21.191,21.191,0,0,0,21.09,21.174H69.769A21.191,21.191,0,0,0,90.859,156.3V71.6H-56.81Z" transform="translate(77.9 -71.6)" fill="#4e4d4d"/>
      <path id="Path_2" data-name="Path 2" d="M340.146,245.837a7.141,7.141,0,0,1-2.9-1.482,8.046,8.046,0,0,1-2.1-2.816,10.439,10.439,0,0,1-.826-4.425V205.5H326.7v29.538c0,4.658,1.44,8.427,4.341,11.159,2.922,2.753,7.093,4.129,12.45,4.15h6.543V246.2h-6.543a10.837,10.837,0,0,1-3.346-.36" transform="translate(-241.029 -182.148)" fill="#fff"/>
      <path id="Path_3" data-name="Path 3" d="M538.1,283.5a12.148,12.148,0,0,0-5.272-4.976,16.178,16.178,0,0,0-2.266-.932c-.3-.085-.551-.169-.72-.212a.931.931,0,0,0-.212-.042l-.042-.021-.106.339-.487.889a9.7,9.7,0,0,1,3.324,4.4,17.487,17.487,0,0,1,1.4,6.733c0,.318-.021.635-.042.953a16.1,16.1,0,0,1-2.52,7.22,10.186,10.186,0,0,1-2.668,2.859,6.071,6.071,0,0,1-3.367,1.143h-.063a5.878,5.878,0,0,1-3.24-.932,8.865,8.865,0,0,1-3.218-4.489,21.2,21.2,0,0,1-1.122-7.178,17.979,17.979,0,0,1,2.393-9.19,9.656,9.656,0,0,1,5.442-4.616l-.191-1.355a15.5,15.5,0,0,0-11.18,4.489,15.375,15.375,0,0,0,11.18,26.235,14.188,14.188,0,0,0,10.672-4.193,15.149,15.149,0,0,0,3.833-10.524v-.127A12.7,12.7,0,0,0,538.1,283.5" transform="translate(-385.201 -236.222)" fill="#fff"/>
      <path id="Path_4" data-name="Path 4" d="M204.135,287.084a13.93,13.93,0,0,0-2.943-4.68,14.147,14.147,0,0,0-4.616-3.176A15.68,15.68,0,0,0,190.583,278h-.042a15.289,15.289,0,0,0-5.759,1.313,14.943,14.943,0,0,0-4.574,3.2A14.681,14.681,0,0,0,176.1,292.8v.042a16.278,16.278,0,0,0,1.292,5.908,14.286,14.286,0,0,0,3.155,4.637,14.054,14.054,0,0,0,4.658,3.028,14.472,14.472,0,0,0,5.8,1.08,11.747,11.747,0,0,0,8.152-2.922v-3.938s-3.494,2.5-6.839,2.668c-3.79.212-7.962-2.266-8.639-8.321h21.386v-2.9a13.772,13.772,0,0,0-.932-5m-20.412,3.155a14.025,14.025,0,0,1,.572-2.477,9.073,9.073,0,0,1,1.355-2.583A6.6,6.6,0,0,1,187.7,283.4a5.488,5.488,0,0,1,2.774-.656h.127a6.51,6.51,0,0,1,4.849,1.863c1.143,1.143,1.927,3.007,2.287,5.632Z" transform="translate(-122.317 -239.296)" fill="#fff"/>
      <path id="Path_5" data-name="Path 5" d="M207.1,218.2l10.926-7.962a4.625,4.625,0,0,1,3.409-1.122,2.838,2.838,0,0,1,2.5,3.218,2.8,2.8,0,0,1-1.8,2.1s-8.936,3.9-15.034,3.769" transform="translate(-146.753 -184.957)" fill="#fff"/>
      <path id="Path_6" data-name="Path 6" d="M25.993,244.186a22.8,22.8,0,0,1-3.981,1.757,18.688,18.688,0,0,1-5.865.953,19.807,19.807,0,0,1-7.453-1.334,16.123,16.123,0,0,1-9.3-9.571,21.089,21.089,0,0,1-1.27-7.5,20.413,20.413,0,0,1,1.038-6.628,15.341,15.341,0,0,1,2.964-5.251,13.758,13.758,0,0,1,4.7-3.451,14.541,14.541,0,0,1,6.289-1.249,28.551,28.551,0,0,1,15.372,4.552l.127-.762c.127-.741.254-1.588.381-2.562q.191-1.429.381-2.287l.106-.508L29,210.18a53.789,53.789,0,0,0-8.152-2.139,44.605,44.605,0,0,0-7.813-.741,26.689,26.689,0,0,0-8.957,1.5,21.948,21.948,0,0,0-7.411,4.4,21.006,21.006,0,0,0-5.082,7.072,24.827,24.827,0,0,0,.042,19.078A20.316,20.316,0,0,0-3.08,246.43a22.748,22.748,0,0,0,7.792,4.32,30.127,30.127,0,0,0,9.465,1.44,23.075,23.075,0,0,0,3.24-.254,34.029,34.029,0,0,0,3.663-.741,36.18,36.18,0,0,0,3.642-1.122,20.2,20.2,0,0,0,3.261-1.5l.106-.064Z" transform="translate(24.614 -183.567)" fill="#fff"/>
      <rect id="Rectangle_9" data-name="Rectangle 9" width="7.856" height="30.237" transform="translate(112.732 37.963)" fill="#fff"/>
      <path id="Path_7" data-name="Path 7" d="M459.567,212.234a4.934,4.934,0,1,1-4.934-4.934,4.925,4.925,0,0,1,4.934,4.934" transform="translate(-337.985 -183.567)" fill="#fff"/>
    </g>
    <path id="Path_8" data-name="Path 8" d="M132.5,464.6h7.051v1.525h-5.378v2.583h4.764v1.525h-4.764v3.854H132.5Z" transform="translate(-165.849 -309.785)" fill="#fff"/>
    <g id="Group_5" data-name="Group 5" transform="translate(-24.626 154.794)">
      <path id="Path_9" data-name="Path 9" d="M173.7,469.984v-5.463h1.673V469.9c0,1.757.91,2.689,2.393,2.689s2.372-.889,2.372-2.626V464.5h1.673v5.4c0,2.837-1.588,4.256-4.065,4.256-2.456,0-4.044-1.419-4.044-4.171" transform="translate(-173.7 -464.5)" fill="#fff"/>
      <path id="Path_10" data-name="Path 10" d="M222.8,464.7h4.214a3.842,3.842,0,0,1,2.731.953,2.811,2.811,0,0,1,.783,2.054v.021a2.825,2.825,0,0,1-2.244,2.859l2.562,3.578h-1.969l-2.329-3.3h-2.075v3.3H222.8Zm4.108,4.68c1.186,0,1.948-.614,1.948-1.588v-.021c0-1.016-.72-1.567-1.969-1.567h-2.414v3.176Z" transform="translate(-212.403 -464.658)" fill="#fff"/>
      <path id="Path_11" data-name="Path 11" d="M269,464.6h1.546l5.082,6.564V464.6h1.63v9.486h-1.4l-5.209-6.733v6.733H269Z" transform="translate(-248.821 -464.579)" fill="#fff"/>
      <rect id="Rectangle_10" data-name="Rectangle 10" width="1.673" height="9.465" transform="translate(30.978 0.021)" fill="#fff"/>
      <path id="Path_12" data-name="Path 12" d="M339.607,466.146H336.6V464.6h7.686v1.546H341.28v7.94h-1.673Z" transform="translate(-302.107 -464.579)" fill="#fff"/>
      <path id="Path_13" data-name="Path 13" d="M380.5,469.984v-5.463h1.673V469.9c0,1.757.91,2.689,2.393,2.689s2.372-.889,2.372-2.626V464.5h1.673v5.4c0,2.837-1.588,4.256-4.065,4.256s-4.044-1.419-4.044-4.171" transform="translate(-336.712 -464.5)" fill="#fff"/>
      <path id="Path_14" data-name="Path 14" d="M429.6,464.7h4.214a3.842,3.842,0,0,1,2.732.953,2.811,2.811,0,0,1,.783,2.054v.021a2.825,2.825,0,0,1-2.244,2.859l2.562,3.578h-1.969l-2.329-3.3h-2.075v3.3H429.6Zm4.087,4.68c1.186,0,1.948-.614,1.948-1.588v-.021c0-1.016-.72-1.567-1.969-1.567h-2.414v3.176Z" transform="translate(-375.415 -464.658)" fill="#fff"/>
      <path id="Path_15" data-name="Path 15" d="M475.8,464.6h7.009v1.5h-5.357v2.456h4.764v1.482h-4.764v2.541h5.442v1.5H475.8Z" transform="translate(-411.833 -464.579)" fill="#fff"/>
    </g>
  </g>
</svg>
