<svg xmlns="http://www.w3.org/2000/svg" width="90.076" height="131.02" viewBox="0 0 90.076 131.02">
  <g id="closet" transform="translate(-80)">
    <g id="Group_5" data-name="Group 5" transform="translate(80)">
      <g id="Group_4" data-name="Group 4">
        <path id="Path_1" data-name="Path 1" d="M168.029,0H82.047A2.047,2.047,0,0,0,80,2.047V128.972a2.047,2.047,0,0,0,2.047,2.047h85.982a2.047,2.047,0,0,0,2.047-2.047V2.047A2.047,2.047,0,0,0,168.029,0ZM122.991,126.925h-38.9V110.548H96.377a2.047,2.047,0,0,0,0,4.094h14.33a2.047,2.047,0,1,0,0-4.094h12.283Zm0-20.472h-38.9V90.076H96.377a2.047,2.047,0,0,0,0,4.094h14.33a2.047,2.047,0,1,0,0-4.094h12.283Zm0-20.472h-38.9V4.094h38.9Zm42.991,40.944h-38.9V110.548h12.283a2.047,2.047,0,1,0,0,4.094H153.7a2.047,2.047,0,0,0,0-4.094h12.283Zm0-20.472h-38.9V90.076h12.283a2.047,2.047,0,1,0,0,4.094H153.7a2.047,2.047,0,0,0,0-4.094h12.283Zm0-20.472h-38.9V4.094h38.9Z" transform="translate(-80)" fill="#f07444"/>
      </g>
    </g>
    <g id="Group_7" data-name="Group 7" transform="translate(110.708 36.849)">
      <g id="Group_6" data-name="Group 6">
        <path id="Path_2" data-name="Path 2" d="M202.047,144A2.047,2.047,0,0,0,200,146.047v18.425a2.047,2.047,0,0,0,4.094,0V146.047A2.047,2.047,0,0,0,202.047,144Z" transform="translate(-200 -144)" fill="#f07444"/>
      </g>
    </g>
    <g id="Group_9" data-name="Group 9" transform="translate(135.274 36.849)">
      <g id="Group_8" data-name="Group 8">
        <path id="Path_3" data-name="Path 3" d="M298.047,144A2.047,2.047,0,0,0,296,146.047v18.425a2.047,2.047,0,0,0,4.094,0V146.047A2.047,2.047,0,0,0,298.047,144Z" transform="translate(-296 -144)" fill="#f07444"/>
      </g>
    </g>
  </g>
</svg>
