<svg xmlns="http://www.w3.org/2000/svg" width="215.797" height="127.203" viewBox="0 0 215.797 127.203">
  <g id="coach" transform="translate(0 -105.099)">
    <path id="Path_1" data-name="Path 1" d="M195.245,152.995a20.457,20.457,0,0,0-12.122,3.964V118.722A13.646,13.646,0,0,0,169.485,105.1H46.312a13.646,13.646,0,0,0-13.638,13.623v38.238a20.53,20.53,0,1,0-19.662,35.657v35.472a4.215,4.215,0,0,0,4.215,4.215H198.571a4.215,4.215,0,0,0,4.215-4.215V192.616a20.523,20.523,0,0,0-7.54-39.621ZM41.1,188.774a9.249,9.249,0,0,1,9.238-9.238H165.456a9.249,9.249,0,0,1,9.238,9.238v3.118H41.1Zm0-70.053a5.207,5.207,0,0,1,5.209-5.193H169.484a5.207,5.207,0,0,1,5.209,5.193v55a17.56,17.56,0,0,0-9.238-2.615H50.341a17.56,17.56,0,0,0-9.238,2.615ZM18.078,185.363a12.1,12.1,0,1,1,14.6-11.844v50.353H21.441V189.491a4.215,4.215,0,0,0-3.363-4.128ZM41.1,200.322h133.59v23.551H41.1Zm156.615-14.959a4.215,4.215,0,0,0-3.363,4.128v34.382H183.123V173.519a12.122,12.122,0,1,1,14.6,11.844Z" fill="#f07444"/>
    <path id="Path_2" data-name="Path 2" d="M239.32,197.388a4.215,4.215,0,0,0,5.961,0l.355-.355.355.355a4.215,4.215,0,0,0,5.961-5.961l-.355-.355.355-.355a4.215,4.215,0,1,0-5.961-5.961l-.354.355-.355-.355a4.215,4.215,0,1,0-5.961,5.961l.355.355-.355.355A4.215,4.215,0,0,0,239.32,197.388Z" transform="translate(-137.738 -45.369)" fill="#f07444"/>
    <path id="Path_3" data-name="Path 3" d="M338.617,197.388a4.215,4.215,0,0,0,5.961,0l.355-.355.355.355a4.215,4.215,0,1,0,5.961-5.961l-.355-.355.355-.355a4.215,4.215,0,0,0-5.961-5.961l-.355.355-.355-.355a4.215,4.215,0,1,0-5.961,5.961l.355.355-.355.355a4.215,4.215,0,0,0,0,5.961Z" transform="translate(-195.183 -45.369)" fill="#f07444"/>
    <path id="Path_4" data-name="Path 4" d="M140.022,197.388a4.215,4.215,0,0,0,5.961,0l.355-.355.355.355a4.215,4.215,0,0,0,5.961-5.961l-.355-.355.355-.355a4.215,4.215,0,0,0-5.961-5.961l-.355.355-.355-.355a4.215,4.215,0,0,0-5.961,5.961l.355.355-.355.355A4.215,4.215,0,0,0,140.022,197.388Z" transform="translate(-80.291 -45.37)" fill="#f07444"/>
  </g>
</svg>
