<svg xmlns="http://www.w3.org/2000/svg" width="325.453" height="244.09" viewBox="0 0 325.453 244.09">
  <path id="envelope-solid" d="M319.288,144.6a3.827,3.827,0,0,1,6.166,2.988V277.579a30.519,30.519,0,0,1-30.511,30.511H30.511A30.519,30.519,0,0,1,0,277.579V147.652a3.8,3.8,0,0,1,6.166-2.988c14.239,11.06,33.117,25.108,97.954,72.21,13.412,9.789,36.041,30.384,58.607,30.257,22.693.191,45.767-20.849,58.671-30.257C286.234,169.772,305.049,155.661,319.288,144.6ZM162.727,226.727c14.747.254,35.978-18.561,46.657-26.316,84.351-61.213,90.771-66.553,110.222-81.808a15.211,15.211,0,0,0,5.848-12.014V94.511A30.519,30.519,0,0,0,294.942,64H30.511A30.519,30.519,0,0,0,0,94.511v12.077A15.3,15.3,0,0,0,5.848,118.6C25.3,133.794,31.719,139.2,116.07,200.411c10.679,7.755,31.91,26.57,46.657,26.316Z" transform="translate(0 -64)" fill="#fff"/>
</svg>
