<svg id="kitchen" xmlns="http://www.w3.org/2000/svg" width="98.819" height="98.819" viewBox="0 0 98.819 98.819">
  <g id="Group_45" data-name="Group 45">
    <g id="Group_44" data-name="Group 44">
      <path id="Path_21" data-name="Path 21" d="M97.172,104H60.938a1.647,1.647,0,0,0-1.647,1.647v39.527H51.056v-1.647H52.7a1.647,1.647,0,1,0,0-3.294H36.234a1.647,1.647,0,1,0,0,3.294h1.647v1.647H21.411v-1.647h1.647a1.647,1.647,0,1,0,0-3.294H6.588a1.647,1.647,0,1,0,0,3.294H8.235v1.647H1.647A1.647,1.647,0,0,0,0,146.821v32.94a1.647,1.647,0,0,0,1.647,1.647H97.172a1.647,1.647,0,0,0,1.647-1.647V105.647A1.647,1.647,0,0,0,97.172,104Zm-56,39.527h6.588v1.647H41.174Zm-29.646,0h6.588v1.647H11.529Zm14.823,34.587H3.294V158.35H26.352Zm0-23.058H3.294v-6.588H26.352Zm32.94,23.058H29.646V148.468H59.291Zm36.234,0H62.585V133.646h32.94Zm0-47.762H62.585V107.294h32.94Z" transform="translate(0 -82.589)" fill="#f07444"/>
      <path id="Path_22" data-name="Path 22" d="M161.647,359.058h19.764a1.647,1.647,0,0,0,1.647-1.647V337.647A1.647,1.647,0,0,0,181.411,336H161.647A1.647,1.647,0,0,0,160,337.647v19.764A1.647,1.647,0,0,0,161.647,359.058Zm1.647-19.764h16.47v16.47h-16.47Z" transform="translate(-127.06 -266.827)" fill="#f07444"/>
      <path id="Path_23" data-name="Path 23" d="M313.647,185.882a1.647,1.647,0,0,0,1.647-1.647v-6.588a1.647,1.647,0,0,0-3.294,0v6.588A1.647,1.647,0,0,0,313.647,185.882Z" transform="translate(-247.768 -139.766)" fill="#f07444"/>
      <path id="Path_24" data-name="Path 24" d="M313.647,265.882a1.647,1.647,0,0,0,1.647-1.647v-6.588a1.647,1.647,0,0,0-3.294,0v6.588A1.647,1.647,0,0,0,313.647,265.882Z" transform="translate(-247.768 -203.297)" fill="#f07444"/>
      <path id="Path_25" data-name="Path 25" d="M16.579,29.263a1.648,1.648,0,0,0,1.058.383H67.047a1.647,1.647,0,0,0,1.267-2.7L51.844,7.179a1.648,1.648,0,0,0-1.267-.591H48.93V1.647A1.647,1.647,0,0,0,47.283,0H37.4a1.647,1.647,0,0,0-1.647,1.647V6.588H34.107a1.648,1.648,0,0,0-1.267.591L16.371,26.943A1.647,1.647,0,0,0,16.579,29.263ZM39.048,3.294h6.588V6.588H39.048ZM34.88,9.882H49.8l13.726,16.47H21.154Z" transform="translate(-12.697 0)" fill="#f07444"/>
    </g>
  </g>
</svg>
