<svg xmlns="http://www.w3.org/2000/svg" width="76.145" height="83.829" viewBox="0 0 76.145 83.829">
  <g id="pouf" transform="translate(-23.467 0.001)">
    <g id="Group_11" data-name="Group 11" transform="translate(23.467 -0.001)">
      <g id="Group_10" data-name="Group 10" transform="translate(0 0)">
        <path id="Path_4" data-name="Path 4" d="M95.47,16.8,62.294.148a1.4,1.4,0,0,0-1.25,0L27.627,16.806a7.468,7.468,0,0,0-4.161,6.724V64.085a1.4,1.4,0,0,0,.772,1.25l9.169,4.587a1.369,1.369,0,0,0,.142.05.963.963,0,0,0,.373.082c.037,0,.073.015.111.015l.019,0a1.371,1.371,0,0,0,.551-.13c.017-.008.036,0,.053-.013l9.169-4.587a1.4,1.4,0,0,0,.772-1.25V57.172l6.374,3.189V77.845a1.4,1.4,0,0,0,.772,1.25l9.169,4.587a1.4,1.4,0,0,0,1.25,0l9.169-4.587a1.4,1.4,0,0,0,.772-1.25V60.361l6.374-3.189v6.913a1.4,1.4,0,0,0,.772,1.25l9.169,4.587c.017.009.036,0,.053.013a1.377,1.377,0,0,0,.551.13l.019,0c.038,0,.073-.012.111-.015a1.385,1.385,0,0,0,.225-.031l.291-.1,9.169-4.587a1.4,1.4,0,0,0,.772-1.25V23.518A7.471,7.471,0,0,0,95.47,16.8ZM41.8,56.44v6.781L35.43,66.41V52.584l6.518,3.261A1.372,1.372,0,0,0,41.8,56.44ZM60.841,80.52l-7.073-3.539V59.5A1.4,1.4,0,0,0,53,58.248L34.657,49.073a1.4,1.4,0,0,0-2.022,1.25V66.411l-6.374-3.19V37.295l34.58,17.3Zm0-37.884V51.47l-34.58-17.3V23.53h0a4.692,4.692,0,0,1,2.613-4.224L61.665,2.959,94.216,19.3h0a4.7,4.7,0,0,1,1.739,1.51L64.606,36.541A6.777,6.777,0,0,0,60.841,42.636ZM87.649,66.41l-6.374-3.189V55.774l6.374-3.189Zm9.169-3.189-6.374,3.19V50.323a1.4,1.4,0,0,0-2.022-1.25L70.083,58.248a1.4,1.4,0,0,0-.772,1.25V76.981L62.238,80.52V54.595l34.58-17.3Zm0-29.051-34.58,17.3V42.636a5.385,5.385,0,0,1,2.993-4.845l31.35-15.73a4.742,4.742,0,0,1,.236,1.457V34.17Z" transform="translate(-23.467 0.001)" fill="#f07444"/>
        <path id="Path_5" data-name="Path 5" d="M99.853,156.642,75.4,144.41a.7.7,0,1,0-.625,1.25h0l24.45,12.232a.7.7,0,0,0,.625-1.25Z" transform="translate(-66.052 -120.704)" fill="#f07444"/>
      </g>
    </g>
  </g>
</svg>
