<svg id="wardrobe" xmlns="http://www.w3.org/2000/svg" width="93.889" height="93.889" viewBox="0 0 93.889 93.889">
  <g id="Group_5" data-name="Group 5" transform="translate(42.25 6.259)">
    <g id="Group_4" data-name="Group 4">
      <path id="Path_1" data-name="Path 1" d="M231.965,34.133A1.565,1.565,0,0,0,230.4,35.7v6.259a1.565,1.565,0,0,0,3.13,0V35.7A1.565,1.565,0,0,0,231.965,34.133Z" transform="translate(-230.4 -34.133)" fill="#f07444"/>
    </g>
  </g>
  <g id="Group_7" data-name="Group 7" transform="translate(86.065 6.259)">
    <g id="Group_6" data-name="Group 6">
      <path id="Path_2" data-name="Path 2" d="M470.9,34.133a1.565,1.565,0,0,0-1.565,1.565v6.259a1.565,1.565,0,0,0,3.13,0V35.7A1.565,1.565,0,0,0,470.9,34.133Z" transform="translate(-469.334 -34.133)" fill="#f07444"/>
    </g>
  </g>
  <g id="Group_9" data-name="Group 9">
    <g id="Group_8" data-name="Group 8">
      <path id="Path_3" data-name="Path 3" d="M32.861,0H1.565A1.565,1.565,0,0,0,0,1.565V92.324a1.565,1.565,0,0,0,1.565,1.565h31.3a1.565,1.565,0,0,0,1.565-1.565V1.565A1.565,1.565,0,0,0,32.861,0ZM31.3,90.759H3.13V3.13H31.3Z" fill="#f07444"/>
    </g>
  </g>
  <g id="Group_11" data-name="Group 11" transform="translate(31.296 65.722)">
    <g id="Group_10" data-name="Group 10">
      <path id="Path_4" data-name="Path 4" d="M231.695,358.4H172.232a1.565,1.565,0,0,0-1.565,1.565V385a1.565,1.565,0,0,0,1.565,1.565h59.463A1.565,1.565,0,0,0,233.259,385V359.965A1.565,1.565,0,0,0,231.695,358.4Zm-1.565,25.037H173.8V361.53H230.13Z" transform="translate(-170.667 -358.4)" fill="#f07444"/>
    </g>
  </g>
  <g id="Group_13" data-name="Group 13" transform="translate(31.296)">
    <g id="Group_12" data-name="Group 12">
      <path id="Path_5" data-name="Path 5" d="M231.695,0H172.232a1.565,1.565,0,0,0-1.565,1.565V7.824a1.565,1.565,0,0,0,1.565,1.565h59.463a1.565,1.565,0,0,0,1.565-1.565V1.565A1.565,1.565,0,0,0,231.695,0ZM230.13,6.259H173.8V3.13H230.13Z" transform="translate(-170.667)" fill="#f07444"/>
    </g>
  </g>
  <g id="Group_15" data-name="Group 15" transform="translate(18.778 45.38)">
    <g id="Group_14" data-name="Group 14">
      <path id="Path_6" data-name="Path 6" d="M108.659,247.467h-4.694a1.565,1.565,0,0,0,0,3.13h4.694a1.565,1.565,0,1,0,0-3.13Z" transform="translate(-102.4 -247.467)" fill="#f07444"/>
    </g>
  </g>
  <g id="Group_17" data-name="Group 17" transform="translate(18.778 45.38)">
    <g id="Group_16" data-name="Group 16">
      <path id="Path_7" data-name="Path 7" d="M103.965,247.467a1.565,1.565,0,0,0-1.565,1.565v4.694a1.565,1.565,0,1,0,3.129,0v-4.694A1.565,1.565,0,0,0,103.965,247.467Z" transform="translate(-102.4 -247.467)" fill="#f07444"/>
    </g>
  </g>
  <g id="Group_19" data-name="Group 19" transform="translate(56.333 76.676)">
    <g id="Group_18" data-name="Group 18">
      <path id="Path_8" data-name="Path 8" d="M318.154,418.133h-9.389a1.565,1.565,0,0,0,0,3.13h9.389a1.565,1.565,0,0,0,0-3.13Z" transform="translate(-307.2 -418.133)" fill="#f07444"/>
    </g>
  </g>
  <g id="Group_21" data-name="Group 21" transform="translate(61.028 76.676)">
    <g id="Group_20" data-name="Group 20">
      <path id="Path_9" data-name="Path 9" d="M334.365,418.133A1.565,1.565,0,0,0,332.8,419.7v3.13a1.565,1.565,0,0,0,3.13,0V419.7A1.565,1.565,0,0,0,334.365,418.133Z" transform="translate(-332.8 -418.133)" fill="#f07444"/>
    </g>
  </g>
  <g id="Group_23" data-name="Group 23" transform="translate(51.639 6.259)">
    <g id="Group_22" data-name="Group 22">
      <path id="Path_10" data-name="Path 10" d="M283.165,34.133A1.565,1.565,0,0,0,281.6,35.7v9.389a1.565,1.565,0,1,0,3.129,0V35.7A1.565,1.565,0,0,0,283.165,34.133Z" transform="translate(-281.6 -34.133)" fill="#f07444"/>
    </g>
  </g>
  <g id="Group_25" data-name="Group 25" transform="translate(39.12 21.907)">
    <g id="Group_24" data-name="Group 24">
      <path id="Path_11" data-name="Path 11" d="M227.416,119.467c-8.423,0-14.083,3.144-14.083,7.824v3.129a1.565,1.565,0,0,0,1.565,1.565h3.13v14.083a1.565,1.565,0,0,0,1.565,1.565H235.24a1.565,1.565,0,0,0,1.565-1.565V131.985h3.13a1.565,1.565,0,0,0,1.565-1.565v-3.13C241.5,122.611,235.84,119.467,227.416,119.467Zm10.954,9.389h-3.13a1.565,1.565,0,0,0-1.565,1.565V144.5H221.157V130.421a1.565,1.565,0,0,0-1.565-1.565h-3.13v-1.565c0-2.275,3.838-4.694,10.954-4.694s10.954,2.419,10.954,4.694v1.565Z" transform="translate(-213.333 -119.467)" fill="#f07444"/>
    </g>
  </g>
  <g id="Group_27" data-name="Group 27" transform="translate(57.116 21.907)">
    <g id="Group_26" data-name="Group 26">
      <path id="Path_12" data-name="Path 12" d="M318.509,119.467a27.269,27.269,0,0,0-5.812.585,1.565,1.565,0,0,0,0,3.058c3.53.773,5.812,2.415,5.812,4.181v1.565h-3.13a1.565,1.565,0,0,0-1.565,1.565v15.648a1.565,1.565,0,0,0,1.565,1.565h10.954a1.565,1.565,0,0,0,1.565-1.565V131.985h3.13a1.565,1.565,0,0,0,1.565-1.565v-3.13C332.592,122.611,326.932,119.467,318.509,119.467Zm10.954,9.389h-3.13a1.565,1.565,0,0,0-1.565,1.565V144.5h-7.824V131.985h3.13a1.565,1.565,0,0,0,1.565-1.565v-3.13a5.97,5.97,0,0,0-2.454-4.687c6.682.147,10.278,2.483,10.278,4.687Z" transform="translate(-311.467 -119.467)" fill="#f07444"/>
    </g>
  </g>
  <g id="Group_29" data-name="Group 29" transform="translate(68.069 21.907)">
    <g id="Group_28" data-name="Group 28">
      <path id="Path_13" data-name="Path 13" d="M378.242,119.467a27.269,27.269,0,0,0-5.812.585,1.565,1.565,0,0,0,0,3.058c3.53.773,5.812,2.415,5.812,4.181v1.565h-3.13a1.565,1.565,0,0,0-1.565,1.565v15.648a1.565,1.565,0,0,0,1.565,1.565h10.954a1.565,1.565,0,0,0,1.565-1.565V131.985h3.13a1.565,1.565,0,0,0,1.565-1.565v-3.13C392.325,122.611,386.665,119.467,378.242,119.467Zm10.954,9.389h-3.13a1.565,1.565,0,0,0-1.565,1.565V144.5h-7.824V131.985h3.13a1.565,1.565,0,0,0,1.565-1.565v-3.13a5.97,5.97,0,0,0-2.454-4.687c6.682.147,10.278,2.483,10.278,4.687Z" transform="translate(-371.2 -119.467)" fill="#f07444"/>
    </g>
  </g>
  <g id="Group_31" data-name="Group 31" transform="translate(51.639 15.648)">
    <g id="Group_30" data-name="Group 30">
      <path id="Path_14" data-name="Path 14" d="M283.165,85.333a1.565,1.565,0,1,0,0,3.129,1.565,1.565,0,0,1,0,3.13,1.565,1.565,0,1,0,0,3.13,4.694,4.694,0,1,0,0-9.388Z" transform="translate(-281.6 -85.333)" fill="#f07444"/>
    </g>
  </g>
  <g id="Group_33" data-name="Group 33" transform="translate(64.157 6.259)">
    <g id="Group_32" data-name="Group 32">
      <path id="Path_15" data-name="Path 15" d="M351.432,34.133a1.565,1.565,0,0,0-1.565,1.565v9.389a1.565,1.565,0,1,0,3.129,0V35.7A1.565,1.565,0,0,0,351.432,34.133Z" transform="translate(-349.867 -34.133)" fill="#f07444"/>
    </g>
  </g>
  <g id="Group_35" data-name="Group 35" transform="translate(64.157 15.648)">
    <g id="Group_34" data-name="Group 34">
      <path id="Path_16" data-name="Path 16" d="M351.432,85.333a1.565,1.565,0,0,0,0,3.129,1.565,1.565,0,1,1,0,3.13,1.565,1.565,0,0,0,0,3.13,4.694,4.694,0,1,0,0-9.388Z" transform="translate(-349.867 -85.333)" fill="#f07444"/>
    </g>
  </g>
  <g id="Group_37" data-name="Group 37" transform="translate(76.676 6.259)">
    <g id="Group_36" data-name="Group 36">
      <path id="Path_17" data-name="Path 17" d="M419.7,34.133a1.565,1.565,0,0,0-1.565,1.565v9.389a1.565,1.565,0,1,0,3.129,0V35.7A1.565,1.565,0,0,0,419.7,34.133Z" transform="translate(-418.134 -34.133)" fill="#f07444"/>
    </g>
  </g>
  <g id="Group_39" data-name="Group 39" transform="translate(76.676 15.648)">
    <g id="Group_38" data-name="Group 38">
      <path id="Path_18" data-name="Path 18" d="M419.7,85.333a1.565,1.565,0,1,0,0,3.129,1.565,1.565,0,0,1,0,3.13,1.565,1.565,0,1,0,0,3.13,4.694,4.694,0,1,0,0-9.388Z" transform="translate(-418.134 -85.333)" fill="#f07444"/>
    </g>
  </g>
  <g id="Group_41" data-name="Group 41" transform="translate(31.296 59.463)">
    <g id="Group_40" data-name="Group 40">
      <path id="Path_19" data-name="Path 19" d="M228.565,324.267H172.232a1.565,1.565,0,0,0-1.565,1.565v6.259a1.565,1.565,0,0,0,1.565,1.565h56.333a1.565,1.565,0,0,0,1.565-1.565v-6.259A1.565,1.565,0,0,0,228.565,324.267ZM227,330.526H173.8V327.4H227v3.13Z" transform="translate(-170.667 -324.267)" fill="#f07444"/>
    </g>
  </g>
  <g id="Group_43" data-name="Group 43" transform="translate(37.555 71.981)">
    <g id="Group_42" data-name="Group 42">
      <path id="Path_20" data-name="Path 20" d="M253.309,392.533H206.365A1.565,1.565,0,0,0,204.8,394.1v12.519a1.565,1.565,0,0,0,1.565,1.565h46.944a1.565,1.565,0,0,0,1.565-1.565V394.1A1.565,1.565,0,0,0,253.309,392.533Zm-1.565,12.519H207.93v-9.389h43.815Z" transform="translate(-204.8 -392.533)" fill="#f07444"/>
    </g>
  </g>
</svg>
